<svg width="39" height="39" viewBox="0 0 39 39" fill="none" xmlns="http://www.w3.org/2000/svg">
<path fill-rule="evenodd" clip-rule="evenodd" d="M3.25 19.5C3.25 10.5251 10.5251 3.25 19.5 3.25C28.4749 3.25 35.75 10.5251 35.75 19.5C35.75 28.4749 28.4749 35.75 19.5 35.75C10.5251 35.75 3.25 28.4749 3.25 19.5ZM19.5 6.5C16.0522 6.5 12.7456 7.86964 10.3076 10.3076C7.86964 12.7456 6.5 16.0522 6.5 19.5C6.5 22.9478 7.86964 26.2544 10.3076 28.6924C12.7456 31.1304 16.0522 32.5 19.5 32.5C22.9478 32.5 26.2544 31.1304 28.6924 28.6924C31.1304 26.2544 32.5 22.9478 32.5 19.5C32.5 16.0522 31.1304 12.7456 28.6924 10.3076C26.2544 7.86964 22.9478 6.5 19.5 6.5Z" fill="black"/>
<path fill-rule="evenodd" clip-rule="evenodd" d="M21.125 11.375C21.125 10.944 20.9538 10.5307 20.649 10.226C20.3443 9.92121 19.931 9.75 19.5 9.75C19.069 9.75 18.6557 9.92121 18.351 10.226C18.0462 10.5307 17.875 10.944 17.875 11.375V17.875H11.375C10.944 17.875 10.5307 18.0462 10.226 18.351C9.92121 18.6557 9.75 19.069 9.75 19.5C9.75 19.931 9.92121 20.3443 10.226 20.649C10.5307 20.9538 10.944 21.125 11.375 21.125H17.875V27.625C17.875 28.056 18.0462 28.4693 18.351 28.7741C18.6557 29.0788 19.069 29.25 19.5 29.25C19.931 29.25 20.3443 29.0788 20.649 28.7741C20.9538 28.4693 21.125 28.056 21.125 27.625V21.125H27.625C28.056 21.125 28.4693 20.9538 28.774 20.649C29.0788 20.3443 29.25 19.931 29.25 19.5C29.25 19.069 29.0788 18.6557 28.774 18.351C28.4693 18.0462 28.056 17.875 27.625 17.875H21.125V11.375Z" fill="black"/>
</svg>
