<svg width="39" height="39" viewBox="0 0 39 39" fill="none" xmlns="http://www.w3.org/2000/svg">
<path d="M18.2403 13.8528C18.4234 13.6697 18.5262 13.4214 18.5262 13.1625C18.5262 12.9036 18.4234 12.6553 18.2403 12.4722C18.0572 12.2891 17.8089 12.1863 17.55 12.1863C17.2911 12.1863 17.0428 12.2891 16.8597 12.4722L14.1063 15.2256L13.3322 14.5197C13.1398 14.3553 12.8911 14.2721 12.6385 14.2877C12.386 14.3033 12.1494 14.4165 11.9787 14.6034C11.8081 14.7902 11.7168 15.0361 11.7241 15.289C11.7314 15.5419 11.8367 15.7821 12.0179 15.9588L13.4804 17.2945C13.6657 17.4633 13.9088 17.5541 14.1594 17.5483C14.4099 17.5425 14.6486 17.4405 14.8259 17.2633L18.2384 13.8508L18.2403 13.8528ZM18.2403 22.2222C18.3311 22.3128 18.4031 22.4204 18.4523 22.5388C18.5014 22.6573 18.5267 22.7843 18.5267 22.9125C18.5267 23.0407 18.5014 23.1677 18.4523 23.2862C18.4031 23.4046 18.3311 23.5122 18.2403 23.6028L14.8278 27.0153C14.6502 27.1927 14.4109 27.2948 14.1599 27.3002C13.9089 27.3057 13.6655 27.2141 13.4804 27.0445L12.0179 25.7088C11.8367 25.5321 11.7314 25.2919 11.7241 25.039C11.7168 24.7861 11.8081 24.5402 11.9787 24.3534C12.1494 24.1665 12.386 24.0533 12.6385 24.0377C12.8911 24.0221 13.1398 24.1053 13.3322 24.2697L14.1063 24.9775L16.8597 22.2222C16.9503 22.1314 17.0579 22.0594 17.1763 22.0102C17.2948 21.9611 17.4218 21.9358 17.55 21.9358C17.6783 21.9358 17.8052 21.9611 17.9237 22.0102C18.0421 22.0594 18.1497 22.1314 18.2403 22.2222ZM21.45 23.4C21.1914 23.4 20.9434 23.5027 20.7606 23.6856C20.5777 23.8684 20.475 24.1164 20.475 24.375C20.475 24.6336 20.5777 24.8816 20.7606 25.0644C20.9434 25.2473 21.1914 25.35 21.45 25.35H24.7065C24.492 24.7396 24.375 24.0825 24.375 23.4H21.45ZM11.7 31.2H21.5475C21.4832 31.5159 21.45 31.8415 21.45 32.175C21.45 32.5006 21.4754 32.8263 21.5241 33.15H11.7C10.1485 33.15 8.66052 32.5337 7.56343 31.4366C6.46634 30.3395 5.85001 28.8515 5.85001 27.3V11.7C5.85001 10.1485 6.46634 8.66051 7.56343 7.56342C8.66052 6.46634 10.1485 5.85 11.7 5.85H27.3C28.8515 5.85 30.3395 6.46634 31.4366 7.56342C32.5337 8.66051 33.15 10.1485 33.15 11.7V18.3319C32.5473 17.983 31.8868 17.7452 31.2 17.6299V11.7C31.2 10.6657 30.7891 9.67367 30.0577 8.94228C29.3263 8.21089 28.3344 7.8 27.3 7.8H11.7C10.6657 7.8 9.67368 8.21089 8.94229 8.94228C8.2109 9.67367 7.80001 10.6657 7.80001 11.7V27.3C7.80001 28.3343 8.2109 29.3263 8.94229 30.0577C9.67368 30.7891 10.6657 31.2 11.7 31.2ZM20.475 14.625C20.475 14.3664 20.5777 14.1184 20.7606 13.9356C20.9434 13.7527 21.1914 13.65 21.45 13.65H26.325C26.5836 13.65 26.8316 13.7527 27.0144 13.9356C27.1973 14.1184 27.3 14.3664 27.3 14.625C27.3 14.8836 27.1973 15.1316 27.0144 15.3144C26.8316 15.4973 26.5836 15.6 26.325 15.6H21.45C21.1914 15.6 20.9434 15.4973 20.7606 15.3144C20.5777 15.1316 20.475 14.8836 20.475 14.625ZM34.125 23.4C34.125 24.4343 33.7141 25.4263 32.9827 26.1577C32.2513 26.8891 31.2594 27.3 30.225 27.3C29.1907 27.3 28.1987 26.8891 27.4673 26.1577C26.7359 25.4263 26.325 24.4343 26.325 23.4C26.325 22.3657 26.7359 21.3737 27.4673 20.6423C28.1987 19.9109 29.1907 19.5 30.225 19.5C31.2594 19.5 32.2513 19.9109 32.9827 20.6423C33.7141 21.3737 34.125 22.3657 34.125 23.4ZM37.05 32.175C37.05 34.6027 35.1 37.05 30.225 37.05C25.35 37.05 23.4 34.6125 23.4 32.175C23.4 31.3992 23.7082 30.6553 24.2567 30.1067C24.8053 29.5582 25.5492 29.25 26.325 29.25H34.125C34.9008 29.25 35.6447 29.5582 36.1933 30.1067C36.7418 30.6553 37.05 31.3992 37.05 32.175Z" fill="black"/>
</svg>
