<svg width="39" height="39" viewBox="0 0 39 39" fill="none" xmlns="http://www.w3.org/2000/svg">
<g clip-path="url(#clip0_22_2)">
<path d="M16.2475 29.25C16.2475 22.623 21.2139 17.1615 27.6199 16.3617V16.2475C28.0389 15.6381 29.2424 14.625 29.2424 12.9949C29.2424 11.3648 27.6199 9.74238 27.6199 8.93496C27.6275 2.4375 24.3141 0 19.5 0C14.8916 0 11.3725 2.4375 11.3725 8.93496C11.3725 9.75 9.75 11.3725 9.75 12.9949C9.75 14.6174 10.9078 15.6914 11.3725 16.2475C11.3725 16.2475 11.3725 17.8699 12.1875 20.3074C12.1875 21.1225 13.81 21.9299 14.625 22.7449C14.625 23.56 14.625 24.3674 13.81 25.9975L4.875 27.6275C1.62246 28.435 0 34.125 0 39H20.673C17.9689 36.6158 16.2475 33.1348 16.2475 29.25ZM29.25 19.5C23.8646 19.5 19.5 23.8646 19.5 29.25C19.5 34.6354 23.8646 39 29.25 39C34.6354 39 39 34.6354 39 29.25C39 23.8646 34.6354 19.5 29.25 19.5ZM35.7475 30.8725H30.8725V35.7475H27.6199V30.8725H22.7449V27.6199H27.6199V22.7449H30.8725V27.6199H35.7475V30.8725Z" fill="black"/>
</g>
<defs>
<clipPath id="clip0_22_2">
<rect width="39" height="39" fill="white"/>
</clipPath>
</defs>
</svg>
