<svg width="39" height="39" viewBox="0 0 39 39" fill="none" xmlns="http://www.w3.org/2000/svg">
<path d="M3.98775 12.9017C4.44484 12.4447 5.06472 12.188 5.71106 12.188C6.3574 12.188 6.97727 12.4447 7.43437 12.9017L19.5 24.9673L31.5656 12.9017C32.0253 12.4577 32.6411 12.212 33.2802 12.2175C33.9193 12.2231 34.5306 12.4794 34.9826 12.9314C35.4345 13.3833 35.6908 13.9947 35.6964 14.6338C35.7019 15.2729 35.4563 15.8886 35.0122 16.3483L21.2233 30.1372C20.7662 30.5942 20.1463 30.8509 19.5 30.8509C18.8537 30.8509 18.2338 30.5942 17.7767 30.1372L3.98775 16.3483C3.53078 15.8912 3.27408 15.2713 3.27408 14.625C3.27408 13.9787 3.53078 13.3588 3.98775 12.9017Z" fill="black"/>
</svg>
