<svg width="39" height="39" viewBox="0 0 39 39" fill="none" xmlns="http://www.w3.org/2000/svg">
<path d="M3.98775 26.0983C4.44484 26.5553 5.06472 26.812 5.71106 26.812C6.3574 26.812 6.97727 26.5553 7.43437 26.0983L19.5 14.0327L31.5656 26.0983C32.0253 26.5423 32.6411 26.788 33.2802 26.7825C33.9193 26.7769 34.5306 26.5206 34.9826 26.0686C35.4345 25.6167 35.6908 25.0053 35.6964 24.3662C35.7019 23.7271 35.4563 23.1114 35.0122 22.6517L21.2233 8.86275C20.7662 8.40579 20.1463 8.14909 19.5 8.14909C18.8537 8.14909 18.2338 8.40579 17.7767 8.86275L3.98775 22.6517C3.53078 23.1088 3.27408 23.7287 3.27408 24.375C3.27408 25.0213 3.53078 25.6412 3.98775 26.0983Z" fill="black"/>
</svg>
