<svg width="39" height="39" viewBox="0 0 39 39" fill="none" xmlns="http://www.w3.org/2000/svg">
<path d="M21.125 4.875H4.875V34.125H34.125V17.875H30.875V30.875H8.125V8.125H21.125V4.875ZM11.375 17.875H14.625V27.625H11.375V17.875ZM21.125 11.375H17.875V27.625H21.125V11.375ZM24.375 21.125H27.625V27.625H24.375V21.125ZM27.625 11.375H24.375V14.625H27.625V11.375ZM27.625 8.125V4.875H24.375V8.125H27.625ZM30.875 8.125H27.625V11.375H30.875V14.625H34.125V11.375H30.875V8.125ZM30.875 8.125V4.875H34.125V8.125H30.875Z" fill="black"/>
</svg>
