<svg width="39" height="39" viewBox="0 0 39 39" fill="none" xmlns="http://www.w3.org/2000/svg">
<path d="M17.875 16.25C17.875 15.3562 18.6062 14.625 19.5 14.625C20.3938 14.625 21.125 15.3562 21.125 16.25V27.625H17.875V16.25ZM32.5 21.125C31.6062 21.125 30.875 21.8562 30.875 22.75V30.875H8.125V8.125H16.25C17.1438 8.125 17.875 7.39375 17.875 6.5C17.875 5.60625 17.1438 4.875 16.25 4.875H8.125C6.3375 4.875 4.875 6.3375 4.875 8.125V30.875C4.875 32.6625 6.3375 34.125 8.125 34.125H30.875C32.6625 34.125 34.125 32.6625 34.125 30.875V22.75C34.125 21.8562 33.3938 21.125 32.5 21.125ZM34.125 8.125H30.875V4.875C30.875 3.98125 30.1438 3.25 29.25 3.25C28.3562 3.25 27.625 3.98125 27.625 4.875V8.125H24.375C23.4812 8.125 22.75 8.85625 22.75 9.75C22.75 10.6438 23.4812 11.375 24.375 11.375H27.625V14.625C27.625 15.5188 28.3562 16.25 29.25 16.25C30.1438 16.25 30.875 15.5188 30.875 14.625V11.375H34.125C35.0188 11.375 35.75 10.6438 35.75 9.75C35.75 8.85625 35.0188 8.125 34.125 8.125ZM26 21.125C25.1062 21.125 24.375 21.8562 24.375 22.75V27.625H27.625V22.75C27.625 21.8562 26.8938 21.125 26 21.125ZM11.375 19.5V27.625H14.625V19.5C14.625 18.6062 13.8938 17.875 13 17.875C12.1062 17.875 11.375 18.6062 11.375 19.5Z" fill="black"/>
</svg>
