<svg width="39" height="39" viewBox="0 0 39 39" fill="none" xmlns="http://www.w3.org/2000/svg">
<path d="M20.0016 38.6667C11.2568 38.6667 4.16824 31.5781 4.16824 22.8333C4.16824 14.0886 11.2568 7 20.0016 7C28.7463 7 35.8349 14.0886 35.8349 22.8333C35.8349 31.5781 28.7463 38.6667 20.0016 38.6667ZM20.0016 35.5C23.361 35.5 26.5828 34.1655 28.9583 31.79C31.3337 29.4146 32.6682 26.1927 32.6682 22.8333C32.6682 19.4739 31.3337 16.2521 28.9583 13.8766C26.5828 11.5012 23.361 10.1667 20.0016 10.1667C16.6422 10.1667 13.4204 11.5012 11.0449 13.8766C8.66943 16.2521 7.33491 19.4739 7.33491 22.8333C7.33491 26.1927 8.66943 29.4146 11.0449 31.79C13.4204 34.1655 16.6422 35.5 20.0016 35.5ZM22.1137 22.8333C22.7436 22.8333 23.3477 22.5831 23.7931 22.1377C24.2385 21.6923 24.4887 21.0882 24.4887 20.4583C24.4887 19.8284 24.2385 19.2244 23.7931 18.779C23.3477 18.3336 22.7436 18.0833 22.1137 18.0833H17.625V22.8333H22.1137ZM22.1137 14.9167C23.5835 14.9167 24.993 15.5005 26.0323 16.5398C27.0716 17.579 27.6554 18.9886 27.6554 20.4583C27.6554 21.9281 27.0716 23.3376 26.0323 24.3769C24.993 25.4161 23.5835 26 22.1137 26H17.625V30.75H14.4583V14.9167H22.1137Z" fill="black"/>
</svg>
