<svg width="39" height="39" viewBox="0 0 39 39" fill="none" xmlns="http://www.w3.org/2000/svg">
<path d="M11.375 9.75C11.375 9.31902 11.5462 8.9057 11.851 8.60095C12.1557 8.29621 12.569 8.125 13 8.125H26C26.431 8.125 26.8443 8.29621 27.149 8.60095C27.4538 8.9057 27.625 9.31902 27.625 9.75V13C27.625 13.431 27.4538 13.8443 27.149 14.149C26.8443 14.4538 26.431 14.625 26 14.625H13C12.569 14.625 12.1557 14.4538 11.851 14.149C11.5462 13.8443 11.375 13.431 11.375 13V9.75ZM13.8125 12.1875H25.1875V10.5625H13.8125V12.1875ZM6.5 7.3125C6.5 6.23506 6.92801 5.20175 7.68988 4.43988C8.45175 3.67801 9.48506 3.25 10.5625 3.25H29.25C29.7835 3.25 30.3118 3.35508 30.8047 3.55924C31.2975 3.7634 31.7454 4.06264 32.1226 4.43988C32.4999 4.81712 32.7991 5.26496 33.0033 5.75785C33.2074 6.25073 33.3125 6.779 33.3125 7.3125V30.4688C33.3125 30.792 33.1841 31.102 32.9555 31.3305C32.727 31.5591 32.417 31.6875 32.0938 31.6875H8.9375C8.9375 32.1185 9.10871 32.5318 9.41345 32.8365C9.7182 33.1413 10.1315 33.3125 10.5625 33.3125H32.0938C32.417 33.3125 32.727 33.4409 32.9555 33.6695C33.1841 33.898 33.3125 34.208 33.3125 34.5312C33.3125 34.8545 33.1841 35.1645 32.9555 35.393C32.727 35.6216 32.417 35.75 32.0938 35.75H10.5625C9.48506 35.75 8.45175 35.322 7.68988 34.5601C6.92801 33.7983 6.5 32.7649 6.5 31.6875V7.3125ZM8.9375 29.25H30.875V7.3125C30.875 6.88152 30.7038 6.4682 30.399 6.16345C30.0943 5.8587 29.681 5.6875 29.25 5.6875H10.5625C10.1315 5.6875 9.7182 5.8587 9.41345 6.16345C9.10871 6.4682 8.9375 6.88152 8.9375 7.3125V29.25Z" fill="black"/>
</svg>
