<svg width="39" height="39" viewBox="0 0 39 39" fill="none" xmlns="http://www.w3.org/2000/svg">
<path d="M19.6523 25.6318C19.6523 25.7994 19.7818 25.9365 19.938 25.9365H26.9839C27.14 25.9365 27.2695 25.7994 27.2695 25.6318V23.8037C27.2695 23.6361 27.14 23.499 26.9839 23.499H19.938C19.7818 23.499 19.6523 23.6361 19.6523 23.8037V25.6318ZM12.2294 25.8642L19.5419 19.7323C19.6866 19.6104 19.6866 19.3857 19.5419 19.2639L12.2294 13.1358C12.1853 13.0983 12.1313 13.0742 12.0738 13.0664C12.0164 13.0587 11.958 13.0676 11.9054 13.092C11.8529 13.1165 11.8085 13.1555 11.7775 13.2044C11.7465 13.2534 11.7302 13.3102 11.7305 13.3682V15.7562C11.7305 15.8476 11.7686 15.9313 11.8409 15.9885L16.0228 19.5L11.8409 23.0115C11.8069 23.04 11.7794 23.0755 11.7603 23.1156C11.7413 23.1557 11.7311 23.1995 11.7305 23.2438V25.6318C11.7305 25.8908 12.0313 26.0317 12.2294 25.8642ZM33.5156 4.26562H5.48438C4.81025 4.26562 4.26562 4.81025 4.26562 5.48438V33.5156C4.26562 34.1897 4.81025 34.7344 5.48438 34.7344H33.5156C34.1897 34.7344 34.7344 34.1897 34.7344 33.5156V5.48438C34.7344 4.81025 34.1897 4.26562 33.5156 4.26562ZM31.9922 31.9922H7.00781V7.00781H31.9922V31.9922Z" fill="black"/>
</svg>
