<svg width="39" height="39" viewBox="0 0 39 39" fill="none" xmlns="http://www.w3.org/2000/svg">
<path d="M10.9688 9.75C11.6418 9.75 12.1875 9.20435 12.1875 8.53125C12.1875 7.85815 11.6418 7.3125 10.9688 7.3125C10.2957 7.3125 9.75 7.85815 9.75 8.53125C9.75 9.20435 10.2957 9.75 10.9688 9.75Z" fill="black"/>
<path d="M32.9062 26.8125V21.9375C32.9062 21.291 32.6494 20.671 32.1923 20.2139C31.7352 19.7568 31.1152 19.5 30.4688 19.5H20.7188V14.625H31.6875C32.334 14.625 32.954 14.3682 33.4111 13.9111C33.8682 13.454 34.125 12.834 34.125 12.1875V4.875C34.125 4.22853 33.8682 3.60855 33.4111 3.15143C32.954 2.69431 32.334 2.4375 31.6875 2.4375H7.3125C6.66603 2.4375 6.04605 2.69431 5.58893 3.15143C5.13181 3.60855 4.875 4.22853 4.875 4.875V12.1875C4.875 12.834 5.13181 13.454 5.58893 13.9111C6.04605 14.3682 6.66603 14.625 7.3125 14.625H18.2812V19.5H8.53125C7.88478 19.5 7.2648 19.7568 6.80768 20.2139C6.35056 20.671 6.09375 21.291 6.09375 21.9375V26.8125H4.875C4.22853 26.8125 3.60855 27.0693 3.15143 27.5264C2.69431 27.9835 2.4375 28.6035 2.4375 29.25V34.125C2.4375 34.7715 2.69431 35.3915 3.15143 35.8486C3.60855 36.3057 4.22853 36.5625 4.875 36.5625H9.75C10.3965 36.5625 11.0165 36.3057 11.4736 35.8486C11.9307 35.3915 12.1875 34.7715 12.1875 34.125V29.25C12.1875 28.6035 11.9307 27.9835 11.4736 27.5264C11.0165 27.0693 10.3965 26.8125 9.75 26.8125H8.53125V21.9375H18.2812V26.8125H17.0625C16.416 26.8125 15.796 27.0693 15.3389 27.5264C14.8818 27.9835 14.625 28.6035 14.625 29.25V34.125C14.625 34.7715 14.8818 35.3915 15.3389 35.8486C15.796 36.3057 16.416 36.5625 17.0625 36.5625H21.9375C22.584 36.5625 23.204 36.3057 23.6611 35.8486C24.1182 35.3915 24.375 34.7715 24.375 34.125V29.25C24.375 28.6035 24.1182 27.9835 23.6611 27.5264C23.204 27.0693 22.584 26.8125 21.9375 26.8125H20.7188V21.9375H30.4688V26.8125H29.25C28.6035 26.8125 27.9835 27.0693 27.5264 27.5264C27.0693 27.9835 26.8125 28.6035 26.8125 29.25V34.125C26.8125 34.7715 27.0693 35.3915 27.5264 35.8486C27.9835 36.3057 28.6035 36.5625 29.25 36.5625H34.125C34.7715 36.5625 35.3915 36.3057 35.8486 35.8486C36.3057 35.3915 36.5625 34.7715 36.5625 34.125V29.25C36.5625 28.6035 36.3057 27.9835 35.8486 27.5264C35.3915 27.0693 34.7715 26.8125 34.125 26.8125H32.9062ZM9.75 34.125H4.875V29.25H9.75V34.125ZM21.9375 29.25V34.125H17.0625V29.25H21.9375ZM7.3125 12.1875V4.875H31.6875V12.1875H7.3125ZM34.125 34.125H29.25V29.25H34.125V34.125Z" fill="black"/>
</svg>
