<svg width="39" height="40" viewBox="0 0 39 40" fill="none" xmlns="http://www.w3.org/2000/svg">
<g clip-path="url(#clip0_15_8)">
<path d="M17.875 15.4583H21.125V12.2083H17.875M19.5 33.3333C12.3338 33.3333 6.5 27.4996 6.5 20.3333C6.5 13.1671 12.3338 7.33333 19.5 7.33333C26.6662 7.33333 32.5 13.1671 32.5 20.3333C32.5 27.4996 26.6662 33.3333 19.5 33.3333ZM19.5 4.08333C17.366 4.08333 15.2529 4.50365 13.2814 5.32029C11.3099 6.13692 9.51847 7.33389 8.00951 8.84284C4.96205 11.8903 3.25 16.0236 3.25 20.3333C3.25 24.6431 4.96205 28.7763 8.00951 31.8238C9.51847 33.3328 11.3099 34.5297 13.2814 35.3464C15.2529 36.163 17.366 36.5833 19.5 36.5833C23.8098 36.5833 27.943 34.8713 30.9905 31.8238C34.038 28.7763 35.75 24.6431 35.75 20.3333C35.75 18.1993 35.3297 16.0863 34.513 14.1147C33.6964 12.1432 32.4994 10.3518 30.9905 8.84284C29.4815 7.33389 27.6901 6.13692 25.7186 5.32029C23.7471 4.50365 21.634 4.08333 19.5 4.08333ZM17.875 28.4583H21.125V18.7083H17.875V28.4583Z" fill="black"/>
</g>
<defs>
<clipPath id="clip0_15_8">
<rect width="39" height="39" fill="white" transform="translate(0 0.833328)"/>
</clipPath>
</defs>
</svg>
