<svg width="39" height="41" viewBox="0 0 39 41" fill="none" xmlns="http://www.w3.org/2000/svg">
<path fill-rule="evenodd" clip-rule="evenodd" d="M27.625 13.6667C27.625 18.3842 23.9874 22.2083 19.5 22.2083C15.0126 22.2083 11.375 18.3842 11.375 13.6667C11.375 8.9491 15.0126 5.125 19.5 5.125C23.9874 5.125 27.625 8.9491 27.625 13.6667ZM26 13.6667C26 15.479 25.3152 17.2171 24.0962 18.4986C22.8772 19.7801 21.2239 20.5 19.5 20.5C17.7761 20.5 16.1228 19.7801 14.9038 18.4986C13.6848 17.2171 13 15.479 13 13.6667C13 11.8544 13.6848 10.1163 14.9038 8.83477C16.1228 7.55327 17.7761 6.83333 19.5 6.83333C21.2239 6.83333 22.8772 7.55327 24.0962 8.83477C25.3152 10.1163 26 11.8544 26 13.6667Z" fill="black"/>
<path d="M24.7812 23.9167C24.6948 23.896 24.6043 23.9069 24.5245 23.9476C24.4447 23.9883 24.3806 24.0563 24.3425 24.1405L21.125 33.8011V30.75L20.6578 27.3154C20.807 27.2824 20.9443 27.2059 21.054 27.0947C21.1638 26.9836 21.2416 26.8422 21.2786 26.6867L21.6848 24.9784C21.7148 24.8525 21.7171 24.7211 21.6916 24.5941C21.6661 24.4672 21.6134 24.348 21.5375 24.2457C21.4616 24.1433 21.3645 24.0605 21.2536 24.0035C21.1427 23.9465 21.0209 23.9168 20.8975 23.9167H18.1041C17.9807 23.9167 17.8589 23.9463 17.748 24.0032C17.6371 24.0601 17.54 24.1428 17.464 24.2451C17.388 24.3473 17.3352 24.4664 17.3096 24.5933C17.2839 24.7203 17.2861 24.8516 17.316 24.9775L17.7223 26.6859C17.7591 26.8415 17.8368 26.983 17.9466 27.0944C18.0564 27.2057 18.1938 27.2823 18.343 27.3154L17.875 30.75V33.0528L14.6575 24.1405C14.6194 24.0563 14.5553 23.9883 14.4755 23.9476C14.3957 23.9069 14.3052 23.896 14.2188 23.9167C13.9081 23.9955 13.5972 24.0729 13.286 24.149C11.4481 24.6017 9.17637 25.1603 7.969 25.994C6.53656 26.9823 5.6875 28.1473 5.6875 29.4687V35.0208H33.3125V29.4687C33.3125 28.1473 32.4634 26.9831 31.031 25.994C29.8236 25.1603 27.5519 24.6017 25.714 24.149C25.3866 24.0687 25.0721 23.9918 24.7812 23.9167Z" fill="black"/>
</svg>
