<svg width="39" height="39" viewBox="0 0 39 39" fill="none" xmlns="http://www.w3.org/2000/svg">
<path fill-rule="evenodd" clip-rule="evenodd" d="M3.65625 9.75C3.65625 9.42677 3.78465 9.11677 4.01321 8.88821C4.24177 8.65965 4.55177 8.53125 4.875 8.53125H34.125C34.4482 8.53125 34.7582 8.65965 34.9868 8.88821C35.2153 9.11677 35.3438 9.42677 35.3438 9.75C35.3438 10.0732 35.2153 10.3832 34.9868 10.6118C34.7582 10.8403 34.4482 10.9687 34.125 10.9688H4.875C4.55177 10.9687 4.24177 10.8403 4.01321 10.6118C3.78465 10.3832 3.65625 10.0732 3.65625 9.75ZM3.65625 16.25C3.65625 15.9268 3.78465 15.6168 4.01321 15.3882C4.24177 15.1597 4.55177 15.0312 4.875 15.0312H34.125C34.4482 15.0312 34.7582 15.1597 34.9868 15.3882C35.2153 15.6168 35.3438 15.9268 35.3438 16.25C35.3438 16.5732 35.2153 16.8832 34.9868 17.1118C34.7582 17.3403 34.4482 17.4688 34.125 17.4688H4.875C4.55177 17.4688 4.24177 17.3403 4.01321 17.1118C3.78465 16.8832 3.65625 16.5732 3.65625 16.25ZM23.5138 21.0763C23.7423 20.848 24.052 20.7198 24.375 20.7198C24.698 20.7198 25.0077 20.848 25.2362 21.0763L28.4375 24.2775L31.6387 21.0763C31.7503 20.9565 31.8849 20.8605 32.0344 20.7939C32.1839 20.7272 32.3453 20.6914 32.5089 20.6885C32.6725 20.6857 32.8351 20.7158 32.9868 20.7771C33.1386 20.8383 33.2765 20.9296 33.3922 21.0453C33.5079 21.161 33.5992 21.2989 33.6604 21.4507C33.7217 21.6024 33.7518 21.765 33.749 21.9286C33.7461 22.0922 33.7103 22.2536 33.6436 22.4031C33.577 22.5526 33.481 22.6872 33.3613 22.7987L30.16 26L33.3613 29.2012C33.481 29.3128 33.577 29.4474 33.6436 29.5969C33.7103 29.7464 33.7461 29.9078 33.749 30.0714C33.7518 30.235 33.7217 30.3976 33.6604 30.5493C33.5992 30.7011 33.5079 30.839 33.3922 30.9547C33.2765 31.0704 33.1386 31.1617 32.9868 31.2229C32.8351 31.2842 32.6725 31.3143 32.5089 31.3115C32.3453 31.3086 32.1839 31.2728 32.0344 31.2061C31.8849 31.1395 31.7503 31.0435 31.6387 30.9238L28.4375 27.7225L25.2362 30.9238C25.1247 31.0435 24.9901 31.1395 24.8406 31.2061C24.6911 31.2728 24.5297 31.3086 24.3661 31.3115C24.2025 31.3143 24.0399 31.2842 23.8882 31.2229C23.7364 31.1617 23.5985 31.0704 23.4828 30.9547C23.3671 30.839 23.2758 30.7011 23.2146 30.5493C23.1533 30.3976 23.1232 30.235 23.126 30.0714C23.1289 29.9078 23.1647 29.7464 23.2314 29.5969C23.298 29.4474 23.394 29.3128 23.5138 29.2012L26.715 26L23.5138 22.7987C23.2855 22.5702 23.1573 22.2605 23.1573 21.9375C23.1573 21.6145 23.2855 21.3048 23.5138 21.0763ZM3.65625 22.75C3.65625 22.4268 3.78465 22.1168 4.01321 21.8882C4.24177 21.6597 4.55177 21.5312 4.875 21.5312H17.875C18.1982 21.5312 18.5082 21.6597 18.7368 21.8882C18.9653 22.1168 19.0938 22.4268 19.0938 22.75C19.0938 23.0732 18.9653 23.3832 18.7368 23.6118C18.5082 23.8403 18.1982 23.9688 17.875 23.9688H4.875C4.55177 23.9687 4.24177 23.8403 4.01321 23.6118C3.78465 23.3832 3.65625 23.0732 3.65625 22.75ZM3.65625 29.25C3.65625 28.9268 3.78465 28.6168 4.01321 28.3882C4.24177 28.1597 4.55177 28.0312 4.875 28.0312H17.875C18.1982 28.0312 18.5082 28.1597 18.7368 28.3882C18.9653 28.6168 19.0938 28.9268 19.0938 29.25C19.0938 29.5732 18.9653 29.8832 18.7368 30.1118C18.5082 30.3403 18.1982 30.4688 17.875 30.4688H4.875C4.55177 30.4688 4.24177 30.3403 4.01321 30.1118C3.78465 29.8832 3.65625 29.5732 3.65625 29.25Z" fill="black"/>
</svg>
