<svg width="39" height="39" viewBox="0 0 39 39" fill="none" xmlns="http://www.w3.org/2000/svg">
<path fill-rule="evenodd" clip-rule="evenodd" d="M3.65625 9.75C3.65625 9.42677 3.78465 9.11677 4.01321 8.88821C4.24177 8.65965 4.55177 8.53125 4.875 8.53125H34.125C34.4482 8.53125 34.7582 8.65965 34.9868 8.88821C35.2153 9.11677 35.3438 9.42677 35.3438 9.75C35.3438 10.0732 35.2153 10.3832 34.9868 10.6118C34.7582 10.8403 34.4482 10.9688 34.125 10.9688H4.875C4.55177 10.9688 4.24177 10.8403 4.01321 10.6118C3.78465 10.3832 3.65625 10.0732 3.65625 9.75ZM3.65625 16.25C3.65625 15.9268 3.78465 15.6168 4.01321 15.3882C4.24177 15.1597 4.55177 15.0313 4.875 15.0313H34.125C34.4482 15.0313 34.7582 15.1597 34.9868 15.3882C35.2153 15.6168 35.3438 15.9268 35.3438 16.25C35.3438 16.5732 35.2153 16.8832 34.9868 17.1118C34.7582 17.3403 34.4482 17.4688 34.125 17.4688H4.875C4.55177 17.4688 4.24177 17.3403 4.01321 17.1118C3.78465 16.8832 3.65625 16.5732 3.65625 16.25ZM33.2491 20.9771C33.5037 21.1759 33.6689 21.4676 33.7085 21.7882C33.7481 22.1087 33.6589 22.4318 33.4604 22.6866L27.1229 30.8116C27.0112 30.9546 26.869 31.0708 26.7066 31.1518C26.5442 31.2328 26.3659 31.2766 26.1844 31.2799C26.003 31.2831 25.8232 31.2458 25.658 31.1707C25.4928 31.0956 25.3465 30.9846 25.2298 30.8458L21.8172 26.7833C21.7076 26.6617 21.6236 26.5193 21.5703 26.3646C21.5169 26.2099 21.4952 26.046 21.5065 25.8827C21.5179 25.7195 21.5619 25.5601 21.6362 25.4143C21.7104 25.2684 21.8133 25.139 21.9386 25.0337C22.064 24.9285 22.2092 24.8496 22.3657 24.8017C22.5222 24.7538 22.6868 24.7379 22.8495 24.755C23.0123 24.7721 23.17 24.8217 23.3131 24.9011C23.4563 24.9804 23.582 25.0878 23.6828 25.2168L26.1267 28.1255L31.538 21.1868C31.6365 21.0605 31.7588 20.9549 31.8981 20.8759C32.0374 20.7969 32.1909 20.7462 32.3498 20.7266C32.5087 20.707 32.6699 20.7188 32.8242 20.7616C32.9785 20.8043 33.1229 20.877 33.2491 20.9755V20.9771ZM3.65625 22.75C3.65625 22.4268 3.78465 22.1168 4.01321 21.8882C4.24177 21.6597 4.55177 21.5313 4.875 21.5313H16.25C16.5732 21.5313 16.8832 21.6597 17.1118 21.8882C17.3403 22.1168 17.4688 22.4268 17.4688 22.75C17.4688 23.0732 17.3403 23.3832 17.1118 23.6118C16.8832 23.8403 16.5732 23.9688 16.25 23.9688H4.875C4.55177 23.9688 4.24177 23.8403 4.01321 23.6118C3.78465 23.3832 3.65625 23.0732 3.65625 22.75ZM3.65625 29.25C3.65625 28.9268 3.78465 28.6168 4.01321 28.3882C4.24177 28.1597 4.55177 28.0313 4.875 28.0313H16.25C16.5732 28.0313 16.8832 28.1597 17.1118 28.3882C17.3403 28.6168 17.4688 28.9268 17.4688 29.25C17.4688 29.5732 17.3403 29.8832 17.1118 30.1118C16.8832 30.3403 16.5732 30.4688 16.25 30.4688H4.875C4.55177 30.4688 4.24177 30.3403 4.01321 30.1118C3.78465 29.8832 3.65625 29.5732 3.65625 29.25Z" fill="black"/>
</svg>
