<svg width="39" height="39" viewBox="0 0 39 39" fill="none" xmlns="http://www.w3.org/2000/svg">
<path d="M27.4328 15.4647L20.1203 11.1382C19.9325 11.0269 19.7182 10.9683 19.4998 10.9685C19.2815 10.9687 19.0673 11.0277 18.8797 11.1394L11.5672 15.4659C11.3848 15.5735 11.2337 15.7267 11.1288 15.9105C11.0238 16.0944 10.9687 16.3024 10.9688 16.5141V24.9234C10.9688 25.3549 11.1967 25.7534 11.5672 25.9716L18.8797 30.2981C19.067 30.4106 19.2815 30.47 19.5 30.47C19.7185 30.47 19.933 30.4106 20.1203 30.2981L27.4328 25.9716C27.6152 25.864 27.7663 25.7108 27.8712 25.527C27.9762 25.3431 28.0313 25.1351 28.0312 24.9234V16.5141C28.0313 16.3022 27.9761 16.094 27.8712 15.91C27.7663 15.726 27.6152 15.5725 27.4328 15.4647ZM25.5938 24.2288L19.5 27.8338L13.4062 24.2288V17.2088L19.5 13.6037L25.5938 17.2088V24.2288Z" fill="black"/>
<path d="M7.3125 24.5993V13.4916L14.8687 9.02606L13.6293 6.92738L5.47341 11.7475C5.29107 11.8554 5.13999 12.0088 5.03505 12.1928C4.93011 12.3769 4.87495 12.585 4.875 12.7969V24.5993C4.16419 24.8498 3.54832 25.3142 3.11191 25.9286C2.67549 26.5431 2.43992 27.2776 2.4375 28.0312C2.4375 30.0471 4.07794 31.6875 6.09375 31.6875C8.10956 31.6875 9.75 30.0471 9.75 28.0312C9.74758 27.2776 9.51201 26.5431 9.07559 25.9286C8.63918 25.3142 8.02331 24.8498 7.3125 24.5993ZM6.09375 29.25C5.77995 29.236 5.48365 29.1014 5.26656 28.8744C5.04946 28.6474 4.9283 28.3454 4.9283 28.0312C4.9283 27.7171 5.04946 27.4151 5.26656 27.1881C5.48365 26.9611 5.77995 26.8265 6.09375 26.8125C6.40755 26.8265 6.70385 26.9611 6.92094 27.1881C7.13804 27.4151 7.2592 27.7171 7.2592 28.0312C7.2592 28.3454 7.13804 28.6474 6.92094 28.8744C6.70385 29.1014 6.40755 29.236 6.09375 29.25ZM32.9062 24.375C30.8904 24.375 29.25 26.0154 29.25 28.0312C29.25 28.4615 29.3377 28.8685 29.4755 29.2524L19.5 35.1463L11.6951 30.5346L10.4557 32.6332L18.8797 37.6106C19.0673 37.7223 19.2815 37.7813 19.4998 37.7815C19.7182 37.7817 19.9325 37.7231 20.1203 37.6118L31.0403 31.1586C31.5888 31.4864 32.2225 31.6875 32.9062 31.6875C34.9221 31.6875 36.5625 30.0471 36.5625 28.0312C36.5625 26.0154 34.9221 24.375 32.9062 24.375ZM32.9062 29.25C32.5924 29.236 32.2961 29.1014 32.0791 28.8744C31.862 28.6474 31.7408 28.3454 31.7408 28.0312C31.7408 27.7171 31.862 27.4151 32.0791 27.1881C32.2961 26.9611 32.5924 26.8265 32.9062 26.8125C33.2201 26.8265 33.5164 26.9611 33.7334 27.1881C33.9505 27.4151 34.0717 27.7171 34.0717 28.0312C34.0717 28.3454 33.9505 28.6474 33.7334 28.8744C33.5164 29.1014 33.2201 29.236 32.9062 29.25ZM19.5 8.53125C20.3909 8.53125 21.1965 8.19853 21.8315 7.66837L31.6875 13.4928V21.9375H34.125V12.7969C34.125 12.585 34.0699 12.3769 33.965 12.1928C33.86 12.0088 33.7089 11.8554 33.5266 11.7475L23.0856 5.57822C23.1294 5.35031 23.1562 5.11631 23.1562 4.875C23.1562 2.85919 21.5158 1.21875 19.5 1.21875C17.4842 1.21875 15.8438 2.85919 15.8438 4.875C15.8438 6.89081 17.4842 8.53125 19.5 8.53125ZM19.5 3.65625C19.7414 3.65601 19.9774 3.72738 20.1782 3.86134C20.379 3.9953 20.5356 4.18582 20.6281 4.40879C20.7206 4.63176 20.7448 4.87716 20.6978 5.11392C20.6508 5.35069 20.5346 5.56818 20.3639 5.73887C20.1932 5.90956 19.9757 6.02577 19.7389 6.0728C19.5022 6.11984 19.2568 6.09558 19.0338 6.00309C18.8108 5.9106 18.6203 5.75405 18.4863 5.55324C18.3524 5.35243 18.281 5.11639 18.2812 4.875C18.2812 4.20225 18.8285 3.65625 19.5 3.65625Z" fill="black"/>
</svg>
