<svg width="39" height="39" viewBox="0 0 39 39" fill="none" xmlns="http://www.w3.org/2000/svg">
<path fill-rule="evenodd" clip-rule="evenodd" d="M18.8533 30.2835C19.0479 30.4024 19.2719 30.4644 19.5 30.4623C19.7281 30.4644 19.9521 30.4024 20.1467 30.2835L21.9911 29.1769C23.7759 28.1059 25.784 27.4622 27.8588 27.2958C29.9335 27.1295 32.0186 27.4452 33.9511 28.2181C35.3974 28.7966 36.9688 27.7306 36.9688 26.1755V7.23125C36.9688 6.292 36.3968 5.44863 35.5241 5.09925C33.0349 4.10366 30.3492 3.69711 27.6769 3.91135C25.0045 4.12559 22.4179 4.95482 20.1191 6.33425L19.5 6.7015L18.8792 6.32938C16.5805 4.94994 13.9938 4.12071 11.3215 3.90647C8.64914 3.69223 5.96345 4.09879 3.47425 5.09438C3.04745 5.26518 2.68175 5.56016 2.42448 5.94114C2.16721 6.32212 2.03022 6.77154 2.03125 7.23125V26.1788C2.03125 27.7339 3.60262 28.7982 5.04887 28.2197C6.98141 27.4468 9.0665 27.1312 11.1412 27.2975C13.216 27.4638 15.2241 28.1076 17.0089 29.1785L18.8533 30.2835ZM4.46875 7.3255V25.8294C6.71457 24.9877 9.12138 24.6637 11.5098 24.8815C13.8983 25.0992 16.2068 25.8532 18.2634 27.0871L18.2812 27.0969V8.81563L17.6264 8.42238C15.6635 7.24451 13.4564 6.53307 11.1752 6.3429C8.89397 6.15272 6.59954 6.4889 4.46875 7.3255ZM20.7366 27.0855L20.7187 27.0969V8.81563L21.3736 8.42238C23.3365 7.24451 25.5436 6.53307 27.8248 6.3429C30.106 6.15272 32.4005 6.4889 34.5313 7.3255V25.8294C32.2854 24.9877 29.8786 24.6637 27.4902 24.8815C25.1017 25.0992 22.7932 25.8532 20.7366 27.0871V27.0855Z" fill="black"/>
<path d="M15.0719 30.9432C13.4565 30.001 11.62 29.5046 9.75 29.5046C7.87996 29.5046 6.04345 30.001 4.42812 30.9432L4.26075 31.0407C4.12247 31.1214 4.00143 31.2285 3.90454 31.356C3.80765 31.4834 3.73682 31.6287 3.69608 31.7835C3.65533 31.9383 3.64548 32.0997 3.66709 32.2583C3.6887 32.4169 3.74133 32.5697 3.822 32.708C3.90266 32.8463 4.00978 32.9673 4.13722 33.0642C4.26466 33.1611 4.40994 33.2319 4.56476 33.2727C4.71957 33.3134 4.8809 33.3233 5.03953 33.3017C5.19815 33.2801 5.35097 33.2274 5.48925 33.1468L5.65662 33.0492C6.89909 32.3246 8.31166 31.9428 9.75 31.9428C11.1883 31.9428 12.6009 32.3246 13.8434 33.0492L15.6114 34.0795C16.7917 34.7679 18.1336 35.1306 19.5 35.1306C20.8664 35.1306 22.2083 34.7679 23.3886 34.0795L25.1566 33.0492C26.3991 32.3246 27.8117 31.9428 29.25 31.9428C30.6883 31.9428 32.1009 32.3246 33.3434 33.0492L33.5107 33.1468C33.79 33.3097 34.1226 33.355 34.4352 33.2727C34.7479 33.1904 35.0151 32.9873 35.178 32.708C35.3409 32.4287 35.3862 32.0962 35.3039 31.7835C35.2216 31.4708 35.0185 31.2037 34.7393 31.0407L34.5719 30.9432C32.9565 30.001 31.12 29.5046 29.25 29.5046C27.38 29.5046 25.5434 30.001 23.9281 30.9432L22.1617 31.9735C21.3539 32.4449 20.4353 32.6933 19.5 32.6933C18.5647 32.6933 17.6461 32.4449 16.8382 31.9735L15.0719 30.9432Z" fill="black"/>
</svg>
