<svg width="39" height="39" viewBox="0 0 39 39" fill="none" xmlns="http://www.w3.org/2000/svg">
<path d="M31.6875 21.9375C29.4231 21.9375 27.5316 23.4975 26.9856 25.5938H23.6608L17.0625 18.9954C16.8368 18.7683 16.5682 18.5882 16.2724 18.4657C15.9766 18.3431 15.6594 18.2804 15.3392 18.2812H2.4375V20.7188H15.3392L21.9375 27.3171C22.3982 27.7777 23.01 28.0312 23.6608 28.0312H26.9856C27.5303 30.1275 29.4231 31.6875 31.6875 31.6875C34.3761 31.6875 36.5625 29.5011 36.5625 26.8125C36.5625 24.1239 34.3761 21.9375 31.6875 21.9375ZM31.6875 29.25C30.3432 29.25 29.25 28.1568 29.25 26.8125C29.25 25.4682 30.3432 24.375 31.6875 24.375C33.0318 24.375 34.125 25.4682 34.125 26.8125C34.125 28.1568 33.0318 29.25 31.6875 29.25ZM31.6875 7.3125C29.4231 7.3125 27.5316 8.8725 26.9856 10.9688H23.6608C23.01 10.9688 22.3982 11.2223 21.9375 11.6829L17.5671 16.0534L19.2904 17.7767L23.6608 13.4062H26.9856C27.5303 15.5025 29.4231 17.0625 31.6875 17.0625C34.3761 17.0625 36.5625 14.8761 36.5625 12.1875C36.5625 9.49894 34.3761 7.3125 31.6875 7.3125ZM31.6875 14.625C30.3432 14.625 29.25 13.5318 29.25 12.1875C29.25 10.8432 30.3432 9.75 31.6875 9.75C33.0318 9.75 34.125 10.8432 34.125 12.1875C34.125 13.5318 33.0318 14.625 31.6875 14.625Z" fill="black"/>
</svg>
