<svg width="39" height="39" viewBox="0 0 39 39" fill="none" xmlns="http://www.w3.org/2000/svg">
<path d="M19.5 35.75C10.5251 35.75 3.25 28.4749 3.25 19.5C3.25 10.5251 10.5251 3.25 19.5 3.25C28.4749 3.25 35.75 10.5251 35.75 19.5C35.75 28.4749 28.4749 35.75 19.5 35.75ZM19.5 32.5C22.9478 32.5 26.2544 31.1304 28.6924 28.6924C31.1304 26.2544 32.5 22.9478 32.5 19.5C32.5 16.0522 31.1304 12.7456 28.6924 10.3076C26.2544 7.86964 22.9478 6.5 19.5 6.5C16.0522 6.5 12.7456 7.86964 10.3076 10.3076C7.86964 12.7456 6.5 16.0522 6.5 19.5C6.5 22.9478 7.86964 26.2544 10.3076 28.6924C12.7456 31.1304 16.0522 32.5 19.5 32.5ZM21.125 19.5H27.625V22.75H17.875V11.375H21.125V19.5Z" fill="white"/>
</svg>
