<svg width="39" height="39" viewBox="0 0 39 39" fill="none" xmlns="http://www.w3.org/2000/svg">
<path d="M11.115 17.55C11.895 13.65 15.405 10.725 19.5 10.725C22.425 10.725 24.765 12.09 26.325 14.235L29.64 10.335C27.3 7.60501 23.595 5.85001 19.5 5.85001C12.675 5.85001 7.02 10.92 6.045 17.55H1.95L8.775 25.35L15.6 17.55H11.115ZM30.225 13.65L23.4 21.45H27.885C26.91 25.35 23.595 28.275 19.5 28.275C16.575 28.275 14.235 26.91 12.675 24.765L9.36 28.47C11.7 31.395 15.405 33.15 19.5 33.15C26.325 33.15 31.98 28.08 32.955 21.45H37.05L30.225 13.65Z" fill="#F8F8F8"/>
</svg>
