<svg width="33" height="33" viewBox="0 0 33 33" fill="none" xmlns="http://www.w3.org/2000/svg">
<path d="M13.9219 24.75C13.9219 24.75 14.9531 23.7188 16.5 23.7188C18.0469 23.7188 19.0781 24.75 19.0781 24.75M29.9062 16.5C29.9062 23.9044 23.9044 29.9062 16.5 29.9062C9.09563 29.9062 3.09375 23.9044 3.09375 16.5C3.09375 9.09563 9.09563 3.09375 16.5 3.09375C23.9044 3.09375 29.9062 9.09563 29.9062 16.5ZM23.7188 18.5625C23.7188 18.836 23.6101 19.0983 23.4167 19.2917C23.2233 19.4851 22.961 19.5938 22.6875 19.5938C22.414 19.5938 22.1517 19.4851 21.9583 19.2917C21.7649 19.0983 21.6562 18.836 21.6562 18.5625C21.6562 18.289 21.7649 18.0267 21.9583 17.8333C22.1517 17.6399 22.414 17.5312 22.6875 17.5312C22.961 17.5312 23.2233 17.6399 23.4167 17.8333C23.6101 18.0267 23.7188 18.289 23.7188 18.5625ZM11.3438 18.5625C11.3438 18.836 11.2351 19.0983 11.0417 19.2917C10.8483 19.4851 10.586 19.5938 10.3125 19.5938C10.039 19.5938 9.77669 19.4851 9.5833 19.2917C9.3899 19.0983 9.28125 18.836 9.28125 18.5625C9.28125 18.289 9.3899 18.0267 9.5833 17.8333C9.77669 17.6399 10.039 17.5312 10.3125 17.5312C10.586 17.5312 10.8483 17.6399 11.0417 17.8333C11.2351 18.0267 11.3438 18.289 11.3438 18.5625Z" stroke="black" stroke-width="2" stroke-linecap="round" stroke-linejoin="round"/>
</svg>
