<svg width="39" height="39" viewBox="0 0 39 39" fill="none" xmlns="http://www.w3.org/2000/svg">
<g clip-path="url(#clip0_22_6)">
<path d="M34.125 27.6275L25.19 26.0051C24.375 24.375 24.375 23.6666 24.375 22.7525C25.19 21.9375 26.8125 21.1301 26.8125 20.315C27.6275 17.8775 27.6275 16.2551 27.6275 16.2551C28.0465 15.6457 29.25 14.6326 29.25 13.0025C29.25 11.3725 27.6275 9.75 27.6275 8.94258C27.6275 2.4375 24.3141 0 19.5 0C14.8916 0 11.3725 2.4375 11.3725 8.93496C11.3725 9.75 9.75 11.3725 9.75 12.9949C9.75 14.6174 10.9078 15.6914 11.3725 16.2475C11.3725 16.2475 11.3725 17.8699 12.1875 20.3074C12.1875 21.1225 13.81 21.9299 14.625 22.7449C14.625 23.56 14.625 24.3674 13.81 25.9975L4.875 27.6275C1.62246 28.435 0 34.125 0 39H39C39 34.125 37.3775 28.435 34.125 27.6275Z" fill="white"/>
</g>
<defs>
<clipPath id="clip0_22_6">
<rect width="39" height="39" fill="white"/>
</clipPath>
</defs>
</svg>
