<svg width="25" height="25" viewBox="0 0 25 25" fill="none" xmlns="http://www.w3.org/2000/svg">
<path d="M21.875 23.4375V6.25H17.1875V1.5625H3.125V23.4375H0V25H10.9375V20.3125H14.0625V25H25V23.4375H21.875ZM9.375 17.1875H6.25V14.0625H9.375V17.1875ZM9.375 12.5H6.25V9.375H9.375V12.5ZM9.375 7.8125H6.25V4.6875H9.375V7.8125ZM14.0625 17.1875H10.9375V14.0625H14.0625V17.1875ZM14.0625 12.5H10.9375V9.375H14.0625V12.5ZM14.0625 7.8125H10.9375V4.6875H14.0625V7.8125ZM20.3125 17.1875H17.1875V14.0625H20.3125V17.1875ZM20.3125 12.5H17.1875V9.375H20.3125V12.5Z" fill="#F8F8F8"/>
</svg>
