<svg width="182" height="64" viewBox="0 0 182 64" fill="none" xmlns="http://www.w3.org/2000/svg">
<path d="M68.6979 27.4002H80.4689L74.5297 11.6088L68.6979 27.4002ZM84.5005 38.0242L82.6181 33.2214H66.6006L64.719 38.1281C63.9849 40.0428 63.3568 41.3349 62.8374 42.0044C62.3173 42.6739 61.4665 43.0094 60.2844 43.0094C59.2809 43.0094 58.3934 42.6523 57.6241 41.9397C56.8533 41.2256 56.4679 40.4168 56.4679 39.5118C56.4679 38.9892 56.5572 38.4505 56.7366 37.8934C56.916 37.337 57.2113 36.562 57.6241 35.5701L67.7029 10.7211C67.9889 10.0084 68.334 9.1519 68.7374 8.15074C69.1401 7.15033 69.5709 6.31995 70.0276 5.65811C70.4836 4.99626 71.0844 4.46145 71.8285 4.05281C72.5719 3.64418 73.4897 3.43945 74.5824 3.43945C75.6939 3.43945 76.6203 3.64416 77.3645 4.05281C78.1079 4.46145 78.708 4.98858 79.1647 5.63196C79.6228 6.27608 80.0068 6.96794 80.3208 7.70747C80.6349 8.447 81.0333 9.43362 81.5166 10.6695L91.8105 35.3615C92.6166 37.2408 93.02 38.6076 93.02 39.4595C93.02 40.3476 92.6389 41.161 91.8775 41.9005C91.1153 42.64 90.1976 43.0094 89.1236 43.0094C88.4954 43.0094 87.9587 42.9001 87.5107 42.6831C87.0619 42.4653 86.6858 42.1698 86.3819 41.7958C86.0764 41.4218 85.7508 40.8477 85.4007 40.0728C85.0506 39.2986 84.7511 38.616 84.5005 38.0242Z" fill="#4F4C4C"/>
<path d="M112.185 36.5878L105.869 12.2087V38.6241C105.869 40.0855 105.533 41.1814 104.861 41.9124C104.19 42.6435 103.298 43.0091 102.186 43.0091C101.112 43.0091 100.234 42.6474 99.5525 41.9255C98.8717 41.2045 98.5317 40.1032 98.5317 38.6241V8.34622C98.5317 6.67548 98.9798 5.54809 99.8752 4.96555C100.771 4.38301 101.98 4.09131 103.504 4.09131H105.976C107.464 4.09131 108.543 4.22214 109.215 4.48302C109.888 4.74313 110.385 5.21331 110.707 5.89207C111.029 6.57082 111.396 7.67594 111.809 9.20735L117.534 30.1674L123.258 9.20735C123.671 7.67594 124.038 6.57082 124.361 5.89207C124.683 5.21331 125.18 4.74309 125.852 4.48302C126.524 4.22214 127.603 4.09131 129.091 4.09131H131.563C133.087 4.09131 134.296 4.38297 135.191 4.96555C136.087 5.54809 136.535 6.67554 136.535 8.34622V38.6241C136.535 40.0855 136.2 41.1814 135.528 41.9124C134.855 42.6435 133.955 43.0091 132.827 43.0091C131.769 43.0091 130.9 42.6435 130.219 41.9124C129.538 41.1813 129.199 40.0855 129.199 38.6241V12.2087L122.882 36.5878C122.47 38.1716 122.134 39.3329 121.875 40.0724C121.614 40.8128 121.135 41.4869 120.437 42.0956C119.737 42.7043 118.769 43.0091 117.534 43.0091C116.601 43.0091 115.814 42.8128 115.168 42.4211C114.523 42.0302 114.022 41.5299 113.663 40.9205C113.305 40.3117 113.022 39.6376 112.816 38.898C112.61 38.1585 112.399 37.389 112.185 36.5878Z" fill="#4F4C4C"/>
<path d="M180.719 26.7996V34.1343C180.719 35.1086 180.621 35.8874 180.423 36.4707C180.227 37.0533 179.863 37.5796 179.334 38.0491C178.806 38.5193 178.13 38.9726 177.306 39.4074C174.922 40.6594 172.63 41.5729 170.425 42.1478C168.221 42.7211 165.821 43.0089 163.223 43.0089C160.195 43.0089 157.435 42.5564 154.944 41.6514C152.453 40.7472 150.33 39.4328 148.575 37.7105C146.818 35.9875 145.469 33.8996 144.529 31.4453C143.589 28.9919 143.119 26.2515 143.119 23.2235C143.119 20.2483 143.576 17.5249 144.49 15.0547C145.403 12.5837 146.746 10.4866 148.52 8.76355C150.294 7.04052 152.453 5.72301 154.999 4.80877C157.542 3.89528 160.427 3.43896 163.652 3.43896C166.304 3.43896 168.651 3.78296 170.695 4.4702C172.736 5.15744 174.394 6.0232 175.666 7.06673C176.938 8.111 177.897 9.21612 178.542 10.3813C179.187 11.5479 179.509 12.5837 179.509 13.488C179.509 14.463 179.137 15.2934 178.394 15.9806C177.65 16.6686 176.759 17.0119 175.719 17.0119C175.147 17.0119 174.595 16.881 174.067 16.6202C173.539 16.3593 173.095 15.9938 172.736 15.5243C171.751 14.0275 170.917 12.8962 170.237 12.1313C169.556 11.3648 168.637 10.7206 167.483 10.1996C166.326 9.6771 164.853 9.41624 163.062 9.41624C161.215 9.41624 159.567 9.72483 158.116 10.3428C156.664 10.9607 155.424 11.8565 154.393 13.0316C153.363 14.206 152.575 15.6458 152.029 17.3512C151.481 19.0566 151.209 20.9443 151.209 23.0152C151.209 27.5048 152.271 30.9594 154.393 33.3772C156.516 35.7967 159.478 37.0057 163.277 37.0057C165.121 37.0057 166.855 36.7709 168.476 36.3008C170.098 35.8313 171.743 35.161 173.408 34.2915V28.0788H167.227C165.74 28.0788 164.616 27.861 163.854 27.427C163.093 26.9914 162.712 26.2518 162.712 25.2076C162.712 24.3557 163.03 23.6508 163.666 23.0928C164.302 22.5364 165.167 22.2586 166.26 22.2586H175.317C176.428 22.2586 177.368 22.354 178.139 22.5449C178.909 22.7365 179.532 23.1636 180.007 23.8239C180.481 24.4858 180.719 25.4775 180.719 26.7996Z" fill="#4F4C4C"/>
<path d="M61.5339 54.0056C61.2508 54.1064 60.8387 54.2119 60.2992 54.325C59.759 54.4374 59.3851 54.5197 59.1769 54.5713C58.9694 54.6244 58.7713 54.7275 58.5826 54.8814C58.3939 55.0353 58.2995 55.2485 58.2995 55.524C58.2995 55.8079 58.4104 56.0503 58.6323 56.2489C58.8542 56.4474 59.1445 56.5482 59.5032 56.5482C59.885 56.5482 60.2373 56.4667 60.5615 56.3035C60.8835 56.1419 61.1205 55.9326 61.2725 55.6748C61.4468 55.3916 61.534 54.9237 61.534 54.2734L61.5339 54.0056ZM61.6614 56.7191C61.1939 57.0716 60.7422 57.3371 60.3057 57.5133C59.8706 57.6895 59.3801 57.778 58.8383 57.778C58.342 57.778 57.9069 57.6826 57.5316 57.4933C57.157 57.3024 56.8674 57.0454 56.665 56.7191C56.4618 56.3951 56.361 56.0419 56.361 55.661C56.361 55.1477 56.5281 54.7105 56.8631 54.3489C57.198 53.9872 57.6576 53.7433 58.2425 53.6201C58.3657 53.5916 58.6704 53.5308 59.156 53.4339C59.6422 53.3377 60.0586 53.2499 60.4051 53.1691C60.7523 53.0899 61.1284 52.9914 61.5339 52.8775C61.5101 52.3834 61.4071 52.0202 61.2263 51.7885C61.0448 51.5561 60.668 51.4414 60.0975 51.4414C59.6062 51.4414 59.2374 51.5076 58.9896 51.64C58.7425 51.7739 58.5292 51.9724 58.3527 52.2387C58.1755 52.5042 58.0509 52.6789 57.9781 52.7635C57.9047 52.8482 57.7476 52.8905 57.507 52.8905C57.2902 52.8905 57.1029 52.8236 56.9444 52.6881C56.7867 52.5527 56.7074 52.3803 56.7074 52.1702C56.7074 51.8401 56.8277 51.5192 57.0683 51.2075C57.3089 50.8966 57.6835 50.6395 58.1928 50.4379C58.7028 50.2363 59.3382 50.1355 60.0974 50.1355C60.9468 50.1355 61.6145 50.2325 62.1008 50.4272C62.5856 50.6219 62.9292 50.9312 63.1302 51.3522C63.3297 51.7739 63.4306 52.3326 63.4306 53.0283C63.4306 53.4685 63.4289 53.8425 63.4268 54.1488C63.4241 54.4558 63.4219 54.7975 63.4167 55.1731C63.4167 55.5271 63.4757 55.8941 63.5968 56.2766C63.7171 56.6583 63.7776 56.9053 63.7776 57.0147C63.7776 57.2071 63.6846 57.3833 63.4974 57.541C63.3108 57.6988 63.1004 57.7781 62.8649 57.7781C62.666 57.7781 62.4701 57.688 62.2763 57.5064C62.0833 57.3248 61.8783 57.0639 61.6614 56.7191Z" fill="#F1511B"/>
<path d="M70.4106 56.7185V56.4791C70.1801 56.7623 69.9366 57.0009 69.6823 57.1933C69.4273 57.3857 69.1493 57.5288 68.8467 57.6227C68.5449 57.7166 68.2005 57.7643 67.8144 57.7643C67.3469 57.7643 66.9276 57.6704 66.5581 57.4819C66.1871 57.2941 65.9004 57.0355 65.698 56.7054C65.4574 56.3068 65.3371 55.7342 65.3371 54.987V51.2684C65.3371 50.8929 65.4242 50.612 65.5986 50.4265C65.7736 50.241 66.0048 50.1487 66.2923 50.1487C66.5847 50.1487 66.821 50.2426 66.9997 50.4303C67.179 50.6173 67.2684 50.8967 67.2684 51.2684V54.2728C67.2684 54.7068 67.3072 55.0731 67.3829 55.3686C67.4571 55.6641 67.594 55.8958 67.7899 56.0628C67.9844 56.2298 68.2495 56.3129 68.5845 56.3129C68.9108 56.3129 69.2177 56.219 69.5051 56.032C69.7933 55.8442 70.0029 55.5988 70.1354 55.2971C70.2435 55.0308 70.2982 54.4491 70.2982 53.5502V51.2684C70.2982 50.8967 70.3876 50.6174 70.5669 50.4304C70.7456 50.2426 70.9804 50.1487 71.2678 50.1487C71.556 50.1487 71.7865 50.2411 71.9616 50.4265C72.1352 50.612 72.223 50.8929 72.223 51.2685V56.7054C72.223 57.0633 72.1388 57.3311 71.9716 57.5096C71.8038 57.6874 71.5877 57.7774 71.324 57.7774C71.0596 57.7774 70.8414 57.6851 70.6699 57.4996C70.4977 57.3141 70.4106 57.054 70.4106 56.7185Z" fill="#F1511B"/>
<path d="M74.252 50.3117H74.4645V49.185C74.4645 48.8834 74.4731 48.6456 74.489 48.4739C74.5048 48.3016 74.5509 48.1538 74.6266 48.0307C74.7022 47.9022 74.8117 47.7983 74.9529 47.7182C75.0941 47.6382 75.2518 47.5974 75.4269 47.5974C75.6725 47.5974 75.8944 47.6874 76.0918 47.866C76.2244 47.9845 76.3079 48.1307 76.3439 48.3016C76.3785 48.4739 76.3973 48.7171 76.3973 49.0342V50.3116H77.1039C77.3784 50.3116 77.5866 50.3755 77.7307 50.5009C77.8747 50.6271 77.946 50.7888 77.946 50.9865C77.946 51.2382 77.843 51.4144 77.6384 51.5152C77.4324 51.616 77.14 51.6661 76.7582 51.6661H76.3973V55.1168C76.3973 55.41 76.4066 55.6355 76.4282 55.794C76.4491 55.9518 76.506 56.0803 76.5982 56.178C76.6897 56.2765 76.8396 56.3265 77.047 56.3265C77.1609 56.3265 77.3136 56.3073 77.5073 56.2673C77.7004 56.2288 77.8524 56.2088 77.9597 56.2088C78.1161 56.2088 78.2565 56.2696 78.3819 56.3919C78.5072 56.5135 78.5692 56.6636 78.5692 56.8421C78.5692 57.1446 78.3992 57.3755 78.0591 57.5355C77.7191 57.6956 77.2322 57.7764 76.5939 57.7764C75.9903 57.7764 75.5335 57.6786 75.2223 57.4809C74.9111 57.2838 74.7058 57.0122 74.6093 56.6636C74.5127 56.315 74.4645 55.8494 74.4645 55.2684V51.6661H74.2102C73.9307 51.6661 73.7189 51.6022 73.572 51.4737C73.4257 51.3452 73.353 51.182 73.353 50.9866C73.353 50.7888 73.4293 50.6272 73.5835 50.501C73.7362 50.3755 73.9595 50.3117 74.252 50.3117Z" fill="#F1511B"/>
<path d="M84.5712 53.9653C84.5712 53.2004 84.3976 52.6055 84.0504 52.1784C83.7047 51.7521 83.2378 51.5397 82.6536 51.5397C82.2755 51.5397 81.9427 51.6343 81.6552 51.8244C81.3671 52.0145 81.1466 52.2954 80.9903 52.6663C80.8347 53.0373 80.7569 53.4705 80.7569 53.9654C80.7569 54.4556 80.834 54.885 80.986 55.2506C81.1401 55.6176 81.3599 55.8985 81.6451 56.0932C81.9304 56.2879 82.2668 56.3849 82.6536 56.3849C83.2378 56.3849 83.7047 56.1702 84.0504 55.7423C84.3976 55.3144 84.5712 54.7218 84.5712 53.9653ZM86.5105 53.9653C86.5105 54.524 86.4211 55.0396 86.241 55.5114C86.0624 55.9847 85.8016 56.3903 85.463 56.7281C85.1238 57.0675 84.7175 57.3268 84.2449 57.5084C83.7738 57.6901 83.2428 57.7801 82.6536 57.7801C82.068 57.7801 81.5421 57.6893 81.0746 57.5046C80.6078 57.3222 80.2036 57.0598 79.8615 56.7189C79.5186 56.3772 79.2592 55.9739 79.0835 55.5091C78.9063 55.0435 78.8177 54.5295 78.8177 53.9654C78.8177 53.3982 78.907 52.8772 79.0856 52.4054C79.2657 51.9337 79.5222 51.5304 79.8571 51.1957C80.1921 50.8609 80.5977 50.6031 81.0746 50.423C81.5522 50.2414 82.078 50.1514 82.6536 50.1514C83.2378 50.1514 83.7687 50.2422 84.2449 50.4253C84.721 50.6093 85.1295 50.8709 85.4695 51.2095C85.8095 51.5489 86.0675 51.9522 86.2447 52.42C86.4219 52.8864 86.5105 53.402 86.5105 53.9653Z" fill="#F1511B"/>
<path d="M94.4583 54.1037V56.5986C94.4583 56.9926 94.3654 57.2882 94.1817 57.4852C93.998 57.6829 93.7545 57.7807 93.4519 57.7807C93.1609 57.7807 92.9224 57.6829 92.7409 57.4852C92.5601 57.2881 92.4686 56.9926 92.4686 56.5986V53.6089C92.4686 53.1371 92.452 52.7701 92.4204 52.5092C92.3865 52.2483 92.2972 52.0336 92.1509 51.8666C92.0047 51.6996 91.7728 51.6157 91.4572 51.6157C90.8247 51.6157 90.4076 51.8266 90.2081 52.2483C90.0071 52.6693 89.907 53.2741 89.907 54.0622V56.5987C89.907 56.9889 89.8162 57.2828 89.6354 57.4814C89.4525 57.6815 89.2133 57.7807 88.9165 57.7807C88.624 57.7807 88.3848 57.6815 88.1975 57.4814C88.011 57.2828 87.918 56.9888 87.918 56.5987V51.2302C87.918 50.8778 88.0023 50.61 88.1702 50.4261C88.3373 50.2429 88.557 50.1521 88.8315 50.1521C89.0951 50.1521 89.3163 50.2375 89.4935 50.4091C89.6699 50.5808 89.7578 50.8185 89.7578 51.1202V51.2995C90.0928 50.9101 90.4522 50.6238 90.8348 50.4407C91.2166 50.2575 91.6409 50.1652 92.1084 50.1652C92.5939 50.1652 93.0117 50.2591 93.3603 50.4476C93.7097 50.6354 93.9979 50.9194 94.2233 51.2995C94.5496 50.9147 94.8983 50.6284 95.2714 50.443C95.6439 50.2575 96.0574 50.1652 96.5098 50.1652C97.0385 50.1652 97.4938 50.266 97.8756 50.4684C98.2574 50.67 98.5434 50.9586 98.7314 51.3342C98.8978 51.6728 98.9799 52.2068 98.9799 52.9348V56.5987C98.9799 56.9927 98.8877 57.2883 98.704 57.4853C98.5196 57.683 98.2761 57.7808 97.975 57.7808C97.6818 57.7808 97.4427 57.6815 97.2568 57.4814C97.0702 57.2828 96.9773 56.9889 96.9773 56.5987V53.4435C96.9773 53.041 96.9586 52.717 96.924 52.4746C96.888 52.2322 96.7929 52.0283 96.6373 51.8628C96.4817 51.6981 96.2454 51.6158 95.9291 51.6158C95.6749 51.6158 95.4328 51.6889 95.2037 51.8359C94.9753 51.9821 94.7967 52.1791 94.6699 52.4269C94.5287 52.7424 94.4583 53.3018 94.4583 54.1037Z" fill="#F1511B"/>
<path d="M105.615 54.0056C105.332 54.1064 104.92 54.2119 104.38 54.325C103.839 54.4374 103.466 54.5197 103.258 54.5713C103.05 54.6244 102.852 54.7275 102.664 54.8814C102.475 55.0353 102.381 55.2485 102.381 55.524C102.381 55.8079 102.491 56.0503 102.713 56.2489C102.935 56.4474 103.226 56.5482 103.584 56.5482C103.966 56.5482 104.318 56.4667 104.643 56.3035C104.965 56.1419 105.202 55.9326 105.353 55.6748C105.528 55.3916 105.615 54.9237 105.615 54.2734L105.615 54.0056ZM105.742 56.7191C105.275 57.0716 104.823 57.3371 104.387 57.5133C103.951 57.6895 103.461 57.778 102.919 57.778C102.423 57.778 101.987 57.6826 101.613 57.4933C101.238 57.3024 100.949 57.0454 100.746 56.7191C100.544 56.3951 100.442 56.0419 100.442 55.661C100.442 55.1477 100.609 54.7105 100.944 54.3489C101.279 53.9872 101.739 53.7433 102.324 53.6201C102.447 53.5916 102.751 53.5308 103.237 53.4339C103.723 53.3377 104.14 53.2499 104.486 53.1691C104.833 53.0899 105.209 52.9914 105.615 52.8775C105.591 52.3834 105.488 52.0202 105.307 51.7885C105.126 51.5561 104.749 51.4414 104.179 51.4414C103.687 51.4414 103.318 51.5076 103.071 51.64C102.824 51.7739 102.61 51.9724 102.434 52.2387C102.257 52.5042 102.131 52.6789 102.058 52.7635C101.985 52.8482 101.829 52.8905 101.588 52.8905C101.371 52.8905 101.184 52.8236 101.025 52.6881C100.867 52.5527 100.788 52.3803 100.788 52.1702C100.788 51.8401 100.908 51.5192 101.149 51.2075C101.389 50.8966 101.765 50.6395 102.274 50.4379C102.784 50.2363 103.419 50.1355 104.178 50.1355C105.028 50.1355 105.696 50.2325 106.182 50.4272C106.667 50.6219 107.01 50.9312 107.211 51.3522C107.411 51.7739 107.512 52.3326 107.512 53.0283C107.512 53.4685 107.51 53.8425 107.508 54.1488C107.505 54.4558 107.503 54.7975 107.498 55.1731C107.498 55.5271 107.558 55.8941 107.677 56.2766C107.797 56.6583 107.859 56.9053 107.859 57.0147C107.859 57.2071 107.766 57.3833 107.578 57.541C107.392 57.6988 107.181 57.7781 106.945 57.7781C106.747 57.7781 106.551 57.688 106.357 57.5064C106.164 57.3248 105.959 57.0639 105.742 56.7191Z" fill="#F1511B"/>
<path d="M111.385 55.0677V56.6361C111.385 57.0163 111.293 57.301 111.11 57.4919C110.926 57.6812 110.691 57.7766 110.409 57.7766C110.131 57.7766 109.901 57.6804 109.722 57.488C109.543 57.2956 109.454 57.0124 109.454 56.6361V51.4116C109.454 50.5689 109.767 50.1479 110.395 50.1479C110.715 50.1479 110.947 50.2457 111.088 50.4435C111.23 50.6405 111.308 50.9306 111.322 51.3161C111.552 50.9306 111.791 50.6405 112.033 50.4435C112.276 50.2457 112.6 50.1479 113.007 50.1479C113.412 50.1479 113.806 50.2457 114.189 50.4435C114.571 50.6405 114.762 50.9014 114.762 51.2261C114.762 51.4554 114.68 51.6448 114.517 51.7933C114.355 51.9433 114.179 52.0172 113.99 52.0172C113.919 52.0172 113.748 51.9749 113.476 51.8902C113.206 51.8056 112.966 51.7633 112.758 51.7633C112.475 51.7633 112.245 51.8348 112.064 51.9787C111.887 52.1234 111.746 52.3381 111.648 52.6221C111.549 52.9069 111.48 53.2432 111.442 53.6356C111.405 54.0281 111.385 54.5052 111.385 55.0677Z" fill="#F1511B"/>
<path d="M120.267 56.9204L118.562 54.1984L117.515 55.1612V56.6518C117.515 57.0151 117.417 57.2929 117.221 57.4868C117.025 57.6815 116.799 57.7793 116.545 57.7793C116.247 57.7793 116.013 57.6831 115.844 57.4907C115.674 57.2983 115.59 57.0151 115.59 56.6388V48.6386C115.59 48.2207 115.671 47.9044 115.836 47.6866C116.003 47.4689 116.238 47.3604 116.545 47.3604C116.843 47.3604 117.078 47.4589 117.252 47.6559C117.427 47.8529 117.515 48.1438 117.515 48.5285V53.0782L119.687 50.8649C119.956 50.5902 120.161 50.4024 120.303 50.3016C120.444 50.2008 120.616 50.1508 120.82 50.1508C121.06 50.1508 121.26 50.2247 121.421 50.3747C121.581 50.5225 121.662 50.7095 121.662 50.9334C121.662 51.2089 121.4 51.5752 120.875 52.0339L119.849 52.9482L121.832 55.9718C121.978 56.1957 122.082 56.3674 122.147 56.4836C122.21 56.6005 122.242 56.7113 122.242 56.8175C122.242 57.1161 122.158 57.3501 121.99 57.5217C121.823 57.6933 121.602 57.7795 121.329 57.7795C121.093 57.7795 120.911 57.7172 120.784 57.594C120.657 57.4709 120.485 57.2452 120.267 56.9204Z" fill="#F1511B"/>
<path d="M124.827 53.3592H128.33C128.283 52.7181 128.105 52.2379 127.796 51.9186C127.487 51.6008 127.08 51.4422 126.575 51.4422C126.094 51.4422 125.7 51.6038 125.39 51.927C125.082 52.2487 124.893 52.7274 124.827 53.3592ZM128.607 54.4251H124.827C124.832 54.8506 124.921 55.2269 125.093 55.5525C125.265 55.8772 125.493 56.1227 125.779 56.2866C126.065 56.4529 126.38 56.5344 126.724 56.5344C126.955 56.5344 127.167 56.5083 127.358 56.4567C127.549 56.4036 127.734 56.3212 127.914 56.2089C128.092 56.0958 128.257 55.9757 128.409 55.848C128.56 55.7195 128.755 55.5448 128.995 55.3247C129.095 55.2423 129.236 55.2015 129.421 55.2015C129.618 55.2015 129.78 55.2546 129.902 55.3593C130.025 55.4655 130.086 55.614 130.086 55.8056C130.086 55.9757 130.018 56.1743 129.881 56.4005C129.744 56.6276 129.538 56.8446 129.261 57.0539C128.986 57.2624 128.639 57.4356 128.221 57.5726C127.804 57.7103 127.323 57.7788 126.781 57.7788C125.539 57.7788 124.576 57.4356 123.886 56.7476C123.198 56.0603 122.853 55.1284 122.853 53.9502C122.853 53.3969 122.938 52.882 123.108 52.408C123.278 51.9332 123.525 51.5268 123.851 51.1875C124.176 50.8481 124.578 50.5888 125.055 50.4071C125.531 50.2263 126.06 50.1362 126.64 50.1362C127.394 50.1362 128.041 50.2901 128.582 50.6003C129.122 50.9089 129.527 51.309 129.795 51.7992C130.065 52.2902 130.199 52.7897 130.199 53.2968C130.199 53.7701 130.06 54.0749 129.782 54.2157C129.503 54.355 129.112 54.4251 128.607 54.4251Z" fill="#F1511B"/>
<path d="M131.932 50.3117H132.144V49.185C132.144 48.8834 132.153 48.6456 132.169 48.4739C132.185 48.3016 132.231 48.1538 132.306 48.0307C132.382 47.9022 132.491 47.7983 132.633 47.7182C132.775 47.6382 132.932 47.5974 133.107 47.5974C133.352 47.5974 133.574 47.6874 133.772 47.866C133.904 47.9845 133.988 48.1307 134.024 48.3016C134.058 48.4739 134.077 48.7171 134.077 49.0342V50.3116H134.784C135.058 50.3116 135.266 50.3755 135.41 50.5009C135.555 50.6271 135.627 50.7888 135.627 50.9865C135.627 51.2382 135.524 51.4144 135.318 51.5152C135.113 51.616 134.82 51.6661 134.438 51.6661H134.077V55.1168C134.077 55.41 134.086 55.6355 134.108 55.794C134.129 55.9518 134.186 56.0803 134.278 56.178C134.37 56.2765 134.519 56.3265 134.727 56.3265C134.841 56.3265 134.993 56.3073 135.187 56.2673C135.381 56.2288 135.532 56.2088 135.64 56.2088C135.797 56.2088 135.936 56.2696 136.062 56.3919C136.187 56.5135 136.249 56.6636 136.249 56.8421C136.249 57.1446 136.079 57.3755 135.739 57.5355C135.399 57.6956 134.912 57.7764 134.274 57.7764C133.67 57.7764 133.213 57.6786 132.902 57.4809C132.591 57.2838 132.386 57.0122 132.289 56.6636C132.193 56.315 132.144 55.8494 132.144 55.2684V51.6661H131.89C131.61 51.6661 131.399 51.6022 131.252 51.4737C131.106 51.3452 131.033 51.182 131.033 50.9866C131.033 50.7888 131.11 50.6272 131.263 50.501C131.416 50.3755 131.639 50.3117 131.932 50.3117Z" fill="#F1511B"/>
<path d="M139.501 54.7732H137.264C136.924 54.7732 136.666 54.6978 136.489 54.5439C136.311 54.3907 136.223 54.1914 136.223 53.949C136.223 53.7012 136.309 53.5011 136.481 53.348C136.654 53.1941 136.914 53.1187 137.264 53.1187H139.501C139.85 53.1187 140.11 53.1941 140.283 53.348C140.455 53.5011 140.54 53.7012 140.54 53.949C140.54 54.1914 140.456 54.3907 140.286 54.5439C140.116 54.6978 139.855 54.7732 139.501 54.7732Z" fill="#F1511B"/>
<path d="M143.294 53.9019C143.294 54.663 143.464 55.2379 143.806 55.6272C144.149 56.0158 144.59 56.2106 145.134 56.2106C145.455 56.2106 145.757 56.1274 146.043 55.9604C146.328 55.7934 146.56 55.5418 146.74 55.2048C146.919 54.8669 147.009 54.459 147.009 53.9781C147.009 53.2116 146.835 52.6167 146.488 52.1896C146.142 51.7648 145.685 51.5508 145.118 51.5508C144.568 51.5508 144.125 51.7555 143.792 52.1634C143.46 52.5705 143.294 53.1508 143.294 53.9019ZM148.891 51.5232V56.974C148.891 57.5966 148.823 58.1337 148.686 58.5831C148.549 59.0318 148.331 59.4035 148.027 59.6959C147.726 59.9891 147.331 60.2062 146.843 60.3493C146.354 60.4909 145.747 60.5617 145.02 60.5617C144.354 60.5617 143.761 60.4716 143.237 60.2908C142.713 60.1092 142.31 59.876 142.026 59.5897C141.743 59.3027 141.602 59.0079 141.602 58.7062C141.602 58.4769 141.682 58.2899 141.842 58.1452C142.002 58.0013 142.196 57.9297 142.423 57.9297C142.706 57.9297 142.954 58.0513 143.166 58.2937C143.27 58.4169 143.377 58.5415 143.488 58.6693C143.599 58.7947 143.722 58.9025 143.856 58.991C143.991 59.081 144.152 59.1472 144.341 59.1911C144.529 59.2349 144.747 59.2557 144.992 59.2557C145.492 59.2557 145.881 59.1887 146.156 59.0533C146.432 58.9179 146.626 58.7285 146.736 58.4861C146.847 58.2437 146.912 57.9836 146.931 57.7058C146.95 57.4288 146.965 56.9832 146.973 56.3698C146.677 56.7723 146.333 57.0801 145.943 57.291C145.554 57.5011 145.091 57.6057 144.553 57.6057C143.907 57.6057 143.342 57.4457 142.859 57.1248C142.375 56.8046 142.002 56.3552 141.743 55.7788C141.484 55.2009 141.354 54.5344 141.354 53.7772C141.354 53.2146 141.433 52.7052 141.592 52.2519C141.749 51.7986 141.974 51.4161 142.267 51.1044C142.56 50.7928 142.897 50.5588 143.279 50.3995C143.661 50.2418 144.082 50.1625 144.539 50.1625C145.086 50.1625 145.56 50.2641 145.961 50.4688C146.363 50.6727 146.735 50.9921 147.08 51.4277V51.1737C147.08 50.8474 147.161 50.5958 147.327 50.4165C147.493 50.2379 147.705 50.1494 147.965 50.1494C148.336 50.1494 148.585 50.2672 148.707 50.5026C148.831 50.7389 148.891 51.0791 148.891 51.5232Z" fill="#F1511B"/>
<path d="M152.57 55.0677V56.6361C152.57 57.0163 152.479 57.301 152.295 57.4919C152.111 57.6812 151.877 57.7766 151.594 57.7766C151.316 57.7766 151.087 57.6804 150.908 57.488C150.728 57.2956 150.639 57.0124 150.639 56.6361V51.4116C150.639 50.5689 150.953 50.1479 151.581 50.1479C151.9 50.1479 152.132 50.2457 152.274 50.4435C152.415 50.6405 152.494 50.9306 152.507 51.3161C152.738 50.9306 152.976 50.6405 153.218 50.4435C153.461 50.2457 153.786 50.1479 154.192 50.1479C154.597 50.1479 154.992 50.2457 155.374 50.4435C155.757 50.6405 155.947 50.9014 155.947 51.2261C155.947 51.4554 155.865 51.6448 155.702 51.7933C155.54 51.9433 155.364 52.0172 155.175 52.0172C155.105 52.0172 154.934 51.9749 154.662 51.8902C154.391 51.8056 154.152 51.7633 153.944 51.7633C153.661 51.7633 153.43 51.8348 153.25 51.9787C153.072 52.1234 152.931 52.3381 152.833 52.6221C152.735 52.9069 152.666 53.2432 152.627 53.6356C152.591 54.0281 152.57 54.5052 152.57 55.0677Z" fill="#F1511B"/>
<path d="M161.739 53.9653C161.739 53.2004 161.565 52.6055 161.218 52.1784C160.871 51.7521 160.405 51.5397 159.821 51.5397C159.442 51.5397 159.11 51.6343 158.822 51.8244C158.535 52.0145 158.313 52.2954 158.157 52.6663C158.002 53.0373 157.924 53.4705 157.924 53.9654C157.924 54.4556 158.001 54.885 158.153 55.2506C158.308 55.6176 158.527 55.8985 158.813 56.0932C159.098 56.2879 159.434 56.3849 159.821 56.3849C160.405 56.3849 160.871 56.1702 161.218 55.7423C161.565 55.3144 161.739 54.7218 161.739 53.9653ZM163.678 53.9653C163.678 54.524 163.589 55.0396 163.409 55.5114C163.23 55.9847 162.969 56.3903 162.631 56.7281C162.291 57.0675 161.885 57.3268 161.412 57.5084C160.941 57.6901 160.41 57.7801 159.821 57.7801C159.235 57.7801 158.71 57.6893 158.242 57.5046C157.775 57.3222 157.371 57.0598 157.028 56.7189C156.686 56.3772 156.427 55.9739 156.251 55.5091C156.073 55.0435 155.985 54.5295 155.985 53.9654C155.985 53.3982 156.074 52.8772 156.253 52.4054C156.433 51.9337 156.69 51.5304 157.025 51.1957C157.36 50.8609 157.765 50.6031 158.242 50.423C158.72 50.2414 159.245 50.1514 159.821 50.1514C160.405 50.1514 160.936 50.2422 161.412 50.4253C161.888 50.6093 162.297 50.8709 162.637 51.2095C162.977 51.5489 163.235 51.9522 163.412 52.42C163.589 52.8864 163.678 53.402 163.678 53.9653Z" fill="#F1511B"/>
<path d="M170.221 56.7185V56.4791C169.991 56.7623 169.748 57.0009 169.493 57.1933C169.238 57.3857 168.96 57.5288 168.657 57.6227C168.355 57.7166 168.011 57.7643 167.625 57.7643C167.157 57.7643 166.738 57.6704 166.369 57.4819C165.998 57.2941 165.711 57.0355 165.508 56.7054C165.268 56.3068 165.147 55.7342 165.147 54.987V51.2684C165.147 50.8929 165.235 50.612 165.41 50.4265C165.584 50.241 165.815 50.1487 166.103 50.1487C166.396 50.1487 166.631 50.2426 166.81 50.4303C166.99 50.6173 167.079 50.8967 167.079 51.2684V54.2728C167.079 54.7068 167.118 55.0731 167.193 55.3686C167.268 55.6641 167.404 55.8958 167.6 56.0628C167.795 56.2298 168.061 56.3129 168.396 56.3129C168.722 56.3129 169.028 56.219 169.316 56.032C169.604 55.8442 169.813 55.5988 169.946 55.2971C170.054 55.0308 170.109 54.4491 170.109 53.5502V51.2684C170.109 50.8967 170.198 50.6174 170.377 50.4304C170.556 50.2426 170.791 50.1487 171.078 50.1487C171.366 50.1487 171.597 50.2411 171.772 50.4265C171.946 50.612 172.034 50.8929 172.034 51.2685V56.7054C172.034 57.0633 171.949 57.3311 171.782 57.5096C171.614 57.6874 171.399 57.7774 171.134 57.7774C170.87 57.7774 170.652 57.6851 170.48 57.4996C170.308 57.3141 170.221 57.054 170.221 56.7185Z" fill="#F1511B"/>
<path d="M179.525 53.9307C179.525 53.4343 179.448 53.0095 179.291 52.654C179.136 52.3 178.92 52.0276 178.644 51.8367C178.368 51.6466 178.062 51.5512 177.727 51.5512C177.193 51.5512 176.745 51.7559 176.379 52.1638C176.014 52.5709 175.831 53.1711 175.831 53.9638C175.831 54.7111 176.013 55.2913 176.376 55.7061C176.738 56.1209 177.19 56.3287 177.727 56.3287C178.049 56.3287 178.345 56.2379 178.619 56.057C178.893 55.8754 179.111 55.6038 179.277 55.2421C179.442 54.8804 179.525 54.4432 179.525 53.9307ZM175.738 51.2018V51.4281C176.102 50.9925 176.479 50.6731 176.871 50.4692C177.263 50.2645 177.706 50.1629 178.201 50.1629C178.796 50.1629 179.344 50.3122 179.843 50.6093C180.343 50.9079 180.739 51.3434 181.029 51.916C181.32 52.4886 181.463 53.1673 181.463 53.95C181.463 54.5279 181.38 55.0581 181.213 55.5422C181.045 56.0255 180.815 56.431 180.523 56.7581C180.231 57.086 179.884 57.3376 179.486 57.5138C179.087 57.69 178.659 57.7785 178.201 57.7785C177.649 57.7785 177.186 57.6716 176.81 57.4553C176.436 57.2406 176.078 56.9243 175.738 56.5065V59.3254C175.738 60.1496 175.43 60.5621 174.812 60.5621C174.448 60.5621 174.208 60.4559 174.09 60.2427C173.972 60.0288 173.912 59.7186 173.912 59.3108V51.2148C173.912 50.8569 173.993 50.5907 174.153 50.4144C174.313 50.2382 174.533 50.1497 174.812 50.1497C175.085 50.1497 175.308 50.2397 175.48 50.4213C175.653 50.6014 175.738 50.8625 175.738 51.2018Z" fill="#F1511B"/>
<path d="M36.0378 4.9928H22.9436C21.6539 4.9928 20.6086 3.87453 20.6086 2.4947C20.6086 1.11997 21.6539 0.00170898 22.9436 0.00170898H36.0378C37.327 0.00170898 38.3724 1.11997 38.3724 2.4947C38.3724 3.87457 37.327 4.9928 36.0378 4.9928Z" fill="#F1511B"/>
<path d="M22.8349 44.9562C20.1459 44.9562 17.9663 42.6279 17.9663 39.7552C17.9663 36.8831 20.1458 34.5549 22.8349 34.5549C25.5233 34.5549 27.7027 36.8833 27.7027 39.7552C27.7027 42.6278 25.5232 44.9562 22.8349 44.9562Z" fill="#4F4C4C"/>
<path d="M16.874 45.4836C19.8347 48.9999 24.903 49.2872 28.195 46.1242C31.487 42.9618 31.7554 37.5469 28.7952 34.0305C25.8345 30.5137 20.7658 30.2269 17.4743 33.3893C14.1822 36.5522 13.9138 41.9668 16.874 45.4836ZM16.1504 27.1386L17.1069 28.2743C18.1969 27.6525 19.3537 27.2217 20.5358 26.9801L20.6112 25.454C20.6606 24.466 21.4572 23.7007 22.382 23.753L24.8679 23.8936C25.7927 23.9459 26.5096 24.7974 26.4606 25.7854L26.3847 27.3114C27.5362 27.6849 28.6439 28.244 29.6667 28.9857L30.7298 27.9639C31.4183 27.3022 32.4886 27.3632 33.108 28.0988L34.7723 30.0758C35.3917 30.8119 35.335 31.9548 34.6465 32.6165L33.5834 33.6383C34.1653 34.8027 34.5687 36.0384 34.7948 37.3013L36.2229 37.3819C37.1481 37.4342 37.8646 38.2857 37.8156 39.2736L37.684 41.9293C37.6346 42.9172 36.838 43.6831 35.9132 43.6308L34.4847 43.5497C34.1351 44.7798 33.6117 45.9632 32.9174 47.0558L33.8739 48.1915C34.4928 48.9271 34.4362 50.0704 33.7476 50.7317L31.8966 52.5101C31.208 53.1718 30.1377 53.1113 29.5188 52.3757L28.5623 51.24C27.4723 51.8617 26.3155 52.2926 25.1334 52.5342L25.0575 54.0597C25.0086 55.0477 24.212 55.8136 23.2871 55.7612L20.8013 55.6202C19.876 55.5679 19.1596 54.7169 19.2086 53.7289L19.2844 52.2028C18.133 51.8294 17.0253 51.2703 16.0025 50.5285L14.9394 51.5503C14.2509 52.2116 13.1806 52.151 12.5611 51.4154L10.8969 49.438C10.2775 48.7024 10.3341 47.559 11.0227 46.8973L12.0858 45.876C11.5038 44.7115 11.1005 43.4758 10.8743 42.2129L9.44632 42.1319C8.52105 42.0796 7.80462 41.2286 7.8536 40.2406L7.98516 37.585C8.03462 36.5965 8.8312 35.8312 9.75601 35.8835L11.1845 35.9645C11.5341 34.7339 12.0575 33.5511 12.7518 32.4585L11.7953 31.3228C11.1763 30.5872 11.233 29.4438 11.9216 28.7821L13.7726 27.0042C14.4612 26.3425 15.531 26.403 16.1504 27.1386Z" fill="#4F4C4C"/>
<path d="M22.8349 64C10.2434 64 0 53.5864 0 40.7864C0 35.5892 2.28032 29.386 7.17623 21.2645C7.8744 20.1068 9.32017 19.7723 10.403 20.5182C11.4867 21.2635 11.7998 22.807 11.1016 23.9648C6.77325 31.1452 4.66939 36.6478 4.66939 40.7863C4.66939 50.8363 12.8183 59.0124 22.8352 59.0124C32.8514 59.0124 41 50.8363 41 40.7863C41 32.3497 32.4992 20.3653 25.6676 10.7362C24.6885 9.35628 23.7407 8.01745 22.8413 6.73006C21.8229 8.20739 20.7843 9.68471 19.6506 11.2955L17.9432 13.727C17.1715 14.8314 15.7065 15.0571 14.6756 14.2297C13.6428 13.4038 13.432 11.8444 14.2051 10.7415L15.9164 8.29984C17.7367 5.7094 19.3092 3.47275 20.9362 1.04132C21.3746 0.389875 22.0818 0 22.8352 0C23.5886 0 24.2959 0.389837 24.7338 1.04132C26.1181 3.11369 27.707 5.35019 29.3892 7.72506C37.0206 18.4803 45.6697 30.6732 45.6697 40.7864C45.6697 53.5864 35.4256 64 22.8349 64Z" fill="#F1511B"/>
</svg>
