<svg width="39" height="39" viewBox="0 0 39 39" fill="none" xmlns="http://www.w3.org/2000/svg">
<path d="M32.5 14.625V30.875C32.5 31.737 32.1576 32.5636 31.5481 33.1731C30.9386 33.7826 30.112 34.125 29.25 34.125H9.75C8.88805 34.125 8.0614 33.7826 7.4519 33.1731C6.84241 32.5636 6.5 31.737 6.5 30.875V8.125C6.5 7.26305 6.84241 6.4364 7.4519 5.8269C8.0614 5.21741 8.88805 4.875 9.75 4.875H22.75M32.5 14.625V14.3455C32.4998 13.4836 32.1573 12.6571 31.5477 12.0478L25.3273 5.82725C24.7179 5.21771 23.8914 4.87518 23.0295 4.875H22.75M32.5 14.625H26C25.138 14.625 24.3114 14.2826 23.7019 13.6731C23.0924 13.0636 22.75 12.237 22.75 11.375V4.875" stroke="white" stroke-width="2" stroke-linecap="round" stroke-linejoin="round"/>
</svg>
