<svg width="39" height="39" viewBox="0 0 39 39" fill="none" xmlns="http://www.w3.org/2000/svg">
<path fill-rule="evenodd" clip-rule="evenodd" d="M8.125 4.875H30.875L14.326 21.424C14.0588 20.7393 13.6241 20.1325 13.0618 19.6592C12.6913 19.3375 12.1729 19.0466 11.1394 18.4633L6.40575 15.7983C4.86362 14.9321 4.09337 14.4982 3.6725 13.7995C3.25 13.0991 3.25 12.2541 3.25 10.5674V9.44613C3.25 7.29138 3.25 6.21238 3.965 5.54288C4.67675 4.875 5.82563 4.875 8.125 4.875Z" fill="#F24E1E"/>
<path opacity="0.5" d="M35.75 10.569V9.44775C35.75 7.293 35.75 6.214 35.035 5.5445C34.3232 4.875 33.1744 4.875 30.875 4.875L14.3244 21.424C14.4056 21.6336 14.4706 21.8514 14.521 22.0789C14.625 22.542 14.625 23.0848 14.625 24.1686V28.5074C14.625 29.9845 14.625 30.7239 15.0345 31.2991C15.444 31.876 16.172 32.1604 17.6247 32.7291C20.6781 33.9219 22.204 34.5182 23.2895 33.839C24.375 33.1614 24.375 31.6095 24.375 28.5057V24.167C24.375 23.0847 24.375 22.542 24.4774 22.0789C24.6819 21.1315 25.1965 20.2795 25.9399 19.6576C26.3087 19.3375 26.8255 19.0466 27.8606 18.4633L32.5942 15.7983C34.1347 14.9321 34.9066 14.4982 35.3275 13.7995C35.75 13.1007 35.75 12.2558 35.75 10.569Z" fill="#F24E1E"/>
</svg>
