<svg width="62" height="87" viewBox="0 0 62 87" fill="none" xmlns="http://www.w3.org/2000/svg">
<path d="M48.4552 6.71299H30.8492C29.1151 6.71299 27.7096 5.20941 27.7096 3.35412C27.7096 1.50572 29.1151 0.00213623 30.8492 0.00213623H48.4552C50.1887 0.00213623 51.5942 1.50572 51.5942 3.35412C51.5942 5.20946 50.1887 6.71299 48.4552 6.71299Z" fill="#F1511B"/>
<path d="M30.703 60.4468C27.0875 60.4468 24.1569 57.3163 24.1569 53.4537C24.1569 49.592 27.0874 46.4616 30.703 46.4616C34.3178 46.4616 37.2481 49.5922 37.2481 53.4537C37.2481 57.3161 34.3177 60.4468 30.703 60.4468Z" fill="#4F4C4C"/>
<path d="M22.6883 61.1555C26.6692 65.8835 33.4838 66.2697 37.91 62.017C42.3364 57.7649 42.6973 50.4842 38.7171 45.7562C34.7362 41.0276 27.9211 40.642 23.4953 44.894C19.069 49.1468 18.7081 56.427 22.6883 61.1555ZM21.7154 36.4894L23.0014 38.0165C24.467 37.1805 26.0223 36.6012 27.6118 36.2763L27.7131 34.2244C27.7796 32.896 28.8507 31.867 30.0942 31.9374L33.4365 32.1263C34.68 32.1967 35.6439 33.3416 35.5781 34.67L35.4761 36.7219C37.0242 37.224 38.5137 37.9758 39.8889 38.9731L41.3182 37.5992C42.2441 36.7095 43.6831 36.7916 44.516 37.7806L46.7537 40.4387C47.5865 41.4285 47.5104 42.9651 46.5845 43.8549L45.1551 45.2288C45.9376 46.7944 46.4799 48.4559 46.784 50.154L48.7041 50.2623C49.9482 50.3326 50.9115 51.4775 50.8456 52.8059L50.6687 56.3765C50.6022 57.7049 49.5312 58.7347 48.2877 58.6643L46.367 58.5553C45.897 60.2092 45.1932 61.8004 44.2597 63.2695L45.5457 64.7965C46.378 65.7855 46.3017 67.3229 45.3759 68.212L42.8871 70.6032C41.9613 71.4929 40.5222 71.4116 39.69 70.4225L38.4039 68.8955C36.9383 69.7314 35.383 70.3108 33.7936 70.6356L33.6915 72.6868C33.6257 74.0152 32.5546 75.0449 31.3112 74.9746L27.9688 74.7849C26.7247 74.7146 25.7614 73.5703 25.8272 72.2419L25.9293 70.19C24.3811 69.6879 22.8916 68.9362 21.5165 67.9388L20.0871 69.3127C19.1613 70.2018 17.7222 70.1204 16.8893 69.1313L14.6516 66.4725C13.8188 65.4835 13.895 63.9461 14.8208 63.0564L16.2502 61.6832C15.4677 60.1175 14.9254 58.456 14.6213 56.758L12.7012 56.649C11.4571 56.5786 10.4939 55.4344 10.5597 54.106L10.7366 50.5354C10.8031 49.2063 11.8742 48.1772 13.1176 48.2476L15.0384 48.3566C15.5084 46.7019 16.2121 45.1115 17.1457 43.6424L15.8596 42.1154C15.0274 41.1264 15.1036 39.589 16.0294 38.6993L18.5182 36.3088C19.4441 35.419 20.8825 35.5004 21.7154 36.4894Z" fill="#4F4C4C"/>
<path d="M30.703 86.0523C13.773 86.0523 0 72.0505 0 54.84C0 47.8521 3.06604 39.5114 9.64892 28.5916C10.5877 27.0349 12.5316 26.5852 13.9875 27.588C15.4446 28.5902 15.8656 30.6655 14.9268 32.2222C9.10709 41.8768 6.27831 49.2755 6.27831 54.8399C6.27831 68.3528 17.2351 79.3461 30.7035 79.3461C44.1709 79.3461 55.1272 68.3528 55.1272 54.8399C55.1272 43.4964 43.6974 27.3825 34.5118 14.4355C33.1954 12.5801 31.9209 10.78 30.7117 9.04902C29.3424 11.0354 27.9459 13.0217 26.4216 15.1876L24.1258 18.4568C23.0883 19.9418 21.1185 20.2452 19.7324 19.1328C18.3437 18.0223 18.0602 15.9256 19.0997 14.4427L21.4006 11.1597C23.8482 7.67667 25.9626 4.66935 28.1501 1.40013C28.7395 0.524214 29.6905 0 30.7035 0C31.7165 0 32.6675 0.524162 33.2563 1.40013C35.1176 4.18657 37.2539 7.19369 39.5157 10.3869C49.7767 24.848 61.406 41.2422 61.406 54.84C61.406 72.0505 47.6321 86.0523 30.703 86.0523Z" fill="#F1511B"/>
</svg>
