<svg width="39" height="39" viewBox="0 0 39 39" fill="none" xmlns="http://www.w3.org/2000/svg">
<g clip-path="url(#clip0_446_5)">
<path d="M17.3333 0H21.6667C22.8651 0 23.8333 1.08926 23.8333 2.4375V7.3125C23.8333 8.66074 22.8651 9.75 21.6667 9.75H17.3333C16.1349 9.75 15.1667 8.66074 15.1667 7.3125V2.4375C15.1667 1.08926 16.1349 0 17.3333 0ZM4.33333 4.875H13V8.53125C13 10.5498 14.4557 12.1875 16.25 12.1875H22.75C24.5443 12.1875 26 10.5498 26 8.53125V4.875H34.6667C37.0568 4.875 39 7.06113 39 9.75V34.125C39 36.8139 37.0568 39 34.6667 39H4.33333C1.94323 39 0 36.8139 0 34.125V9.75C0 7.06113 1.94323 4.875 4.33333 4.875ZM11.9167 33.31C11.9167 33.7594 12.2417 34.125 12.6411 34.125H26.3589C26.7583 34.125 27.0833 33.7594 27.0833 33.31C27.0833 31.0629 25.4651 29.25 23.4745 29.25H15.5255C13.5281 29.25 11.9167 31.0705 11.9167 33.31ZM19.5 26.8125C20.6493 26.8125 21.7515 26.2989 22.5641 25.3846C23.3768 24.4704 23.8333 23.2304 23.8333 21.9375C23.8333 20.6446 23.3768 19.4046 22.5641 18.4904C21.7515 17.5761 20.6493 17.0625 19.5 17.0625C18.3507 17.0625 17.2485 17.5761 16.4359 18.4904C15.6232 19.4046 15.1667 20.6446 15.1667 21.9375C15.1667 23.2304 15.6232 24.4704 16.4359 25.3846C17.2485 26.2989 18.3507 26.8125 19.5 26.8125Z" fill="black"/>
</g>
<defs>
<clipPath id="clip0_446_5">
<rect width="39" height="39" fill="white"/>
</clipPath>
</defs>
</svg>
