<svg width="39" height="39" viewBox="0 0 39 39" fill="none" xmlns="http://www.w3.org/2000/svg">
<path d="M23.7656 11.8426H20.4847V27.158H23.7656C25.5748 27.158 27.0477 25.743 27.0477 24.0051V14.9961C27.0477 13.2576 25.5748 11.8426 23.7656 11.8426Z" fill="white"/>
<path d="M31.6875 1.21875H7.3125C3.94692 1.21875 1.21875 3.94692 1.21875 7.3125V31.6875C1.21875 35.0531 3.94692 37.7812 7.3125 37.7812H31.6875C35.0531 37.7812 37.7812 35.0531 37.7812 31.6875V7.3125C37.7812 3.94692 35.0531 1.21875 31.6875 1.21875ZM14.0156 29.8594H11.5781V9.14062H14.0156V29.8594ZM29.8594 24.0051C29.8597 24.7895 29.6964 25.5653 29.3798 26.283C29.0706 26.983 28.6269 27.6155 28.0739 28.1446C27.5139 28.682 26.8566 29.1078 26.1373 29.3993C25.384 29.7048 24.5785 29.861 23.7656 29.8594H17.6719V9.14062H23.7656C24.5871 9.14062 25.3847 9.29541 26.1379 9.60009C26.8631 9.89503 27.5151 10.3167 28.0745 10.8548C28.6339 11.3929 29.0727 12.0199 29.3804 12.7152C29.6965 13.4341 29.8596 14.2108 29.8594 14.9961V24.0051Z" fill="white"/>
</svg>
